<mxfile modified="2024-07-31T04:30:24.463Z" host="Electron" agent="Mozilla/5.0 (Windows NT 10.0; Win64; x64) AppleWebKit/537.36 (KHTML, like Gecko) draw.io/24.5.3 Chrome/124.0.6367.207 Electron/30.0.6 Safari/537.36" etag="UbPmirkCQ3sFRz-m1Frl" version="24.5.3" type="device">
  <diagram id="WI9T0HZ2pTsCkuznbFz-" name="Page-1">
    <mxGraphModel dx="1185" dy="1305" grid="0" gridSize="10" guides="0" tooltips="1" connect="1" arrows="1" fold="1" page="1" pageScale="1" pageWidth="1169" pageHeight="827" math="0" shadow="0">
      <root>
        <mxCell id="0" />
        <mxCell id="1" parent="0" />
        <mxCell id="k0CTzh7-vUOgCoUulJSG-58" value="" style="rounded=0;whiteSpace=wrap;html=1;" vertex="1" parent="1">
          <mxGeometry x="282" y="-422" width="303" height="169" as="geometry" />
        </mxCell>
        <mxCell id="k0CTzh7-vUOgCoUulJSG-7" value="" style="rounded=0;whiteSpace=wrap;html=1;" vertex="1" parent="1">
          <mxGeometry x="630" y="-744" width="186" height="488" as="geometry" />
        </mxCell>
        <mxCell id="k0CTzh7-vUOgCoUulJSG-34" value="" style="rounded=0;whiteSpace=wrap;html=1;" vertex="1" parent="1">
          <mxGeometry x="644" y="-518" width="154" height="248" as="geometry" />
        </mxCell>
        <mxCell id="k0CTzh7-vUOgCoUulJSG-10" value="" style="rounded=0;whiteSpace=wrap;html=1;" vertex="1" parent="1">
          <mxGeometry x="506" y="-742" width="97" height="209" as="geometry" />
        </mxCell>
        <mxCell id="k0CTzh7-vUOgCoUulJSG-6" value="" style="rounded=0;whiteSpace=wrap;html=1;" vertex="1" parent="1">
          <mxGeometry x="274" y="-741" width="190" height="213" as="geometry" />
        </mxCell>
        <mxCell id="x5Qx7wWfgq4q1o_DWIzA-18" value="" style="rounded=0;whiteSpace=wrap;html=1;" parent="1" vertex="1">
          <mxGeometry x="284" y="-232" width="532" height="186" as="geometry" />
        </mxCell>
        <mxCell id="x5Qx7wWfgq4q1o_DWIzA-24" value="" style="edgeStyle=orthogonalEdgeStyle;rounded=0;orthogonalLoop=1;jettySize=auto;html=1;strokeColor=#FF8000;" parent="1" source="AcxdMaKK0mU5kZiv2lnr-31" target="x5Qx7wWfgq4q1o_DWIzA-1" edge="1">
          <mxGeometry relative="1" as="geometry">
            <mxPoint x="341" y="-468" as="targetPoint" />
            <Array as="points">
              <mxPoint x="427" y="-506" />
              <mxPoint x="377" y="-506" />
              <mxPoint x="377" y="-471" />
            </Array>
            <mxPoint x="392" y="-471" as="sourcePoint" />
          </mxGeometry>
        </mxCell>
        <mxCell id="k0CTzh7-vUOgCoUulJSG-14" value="" style="edgeStyle=orthogonalEdgeStyle;rounded=0;orthogonalLoop=1;jettySize=auto;html=1;" edge="1" parent="1" source="-V9h-_qufcQMwzrIH1RG-21" target="AcxdMaKK0mU5kZiv2lnr-31">
          <mxGeometry relative="1" as="geometry">
            <Array as="points">
              <mxPoint x="472" y="-379" />
              <mxPoint x="472" y="-465" />
            </Array>
          </mxGeometry>
        </mxCell>
        <mxCell id="AcxdMaKK0mU5kZiv2lnr-31" value="" style="shape=image;verticalLabelPosition=bottom;labelBackgroundColor=#ffffff;verticalAlign=top;aspect=fixed;imageAspect=0;image=data:image/svg+xml,PHN2ZyB4bWxuczpjYz0iaHR0cDovL2NyZWF0aXZlY29tbW9ucy5vcmcvbnMjIiB4bWxuczpkYz0iaHR0cDovL3B1cmwub3JnL2RjL2VsZW1lbnRzLzEuMS8iIHhtbG5zOmlua3NjYXBlPSJodHRwOi8vd3d3Lmlua3NjYXBlLm9yZy9uYW1lc3BhY2VzL2lua3NjYXBlIiB4bWxuczpyZGY9Imh0dHA6Ly93d3cudzMub3JnLzE5OTkvMDIvMjItcmRmLXN5bnRheC1ucyMiIHhtbG5zOnNvZGlwb2RpPSJodHRwOi8vc29kaXBvZGkuc291cmNlZm9yZ2UubmV0L0RURC9zb2RpcG9kaS0wLmR0ZCIgeG1sbnM6c3ZnPSJodHRwOi8vd3d3LnczLm9yZy8yMDAwL3N2ZyIgeG1sbnM9Imh0dHA6Ly93d3cudzMub3JnLzIwMDAvc3ZnIiB4bWxuczp4bGluaz0iaHR0cDovL3d3dy53My5vcmcvMTk5OS94bGluayIgdmVyc2lvbj0iMS4xIiBpZD0ic3ZnMTc1NjcxIiBpbmtzY2FwZTp2ZXJzaW9uPSIwLjkyLjMgKDI0MDU1NDYsIDIwMTgtMDMtMTEpIiBzb2RpcG9kaTpkb2NuYW1lPSJnaXRodWIuc3ZnIiB4PSIwcHgiIHk9IjBweCIgdmlld0JveD0iMCAwIDQ1LjI3IDQ1LjI5IiBzdHlsZT0iZW5hYmxlLWJhY2tncm91bmQ6bmV3IDAgMCA0NS4yNyA0NS4yOTsiIHhtbDpzcGFjZT0icHJlc2VydmUiPiYjeGE7PHNvZGlwb2RpOm5hbWVkdmlldyBib3JkZXJjb2xvcj0iIzY2NjY2NiIgYm9yZGVyb3BhY2l0eT0iMSIgZml0LW1hcmdpbi1ib3R0b209IjAiIGZpdC1tYXJnaW4tbGVmdD0iMCIgZml0LW1hcmdpbi1yaWdodD0iMCIgZml0LW1hcmdpbi10b3A9IjAiIGdyaWR0b2xlcmFuY2U9IjEwIiBndWlkZXRvbGVyYW5jZT0iMTAiIGlkPSJuYW1lZHZpZXcxNzU2NzMiIGlua3NjYXBlOmN1cnJlbnQtbGF5ZXI9InN2ZzE3NTY3MSIgaW5rc2NhcGU6Y3g9IjMwLjE3ODAyNSIgaW5rc2NhcGU6Y3k9IjMwLjE5NDMxOSIgaW5rc2NhcGU6cGFnZW9wYWNpdHk9IjAiIGlua3NjYXBlOnBhZ2VzaGFkb3c9IjIiIGlua3NjYXBlOndpbmRvdy1oZWlnaHQ9IjEwMTciIGlua3NjYXBlOndpbmRvdy1tYXhpbWl6ZWQ9IjEiIGlua3NjYXBlOndpbmRvdy13aWR0aD0iMTkyMCIgaW5rc2NhcGU6d2luZG93LXg9Ii04IiBpbmtzY2FwZTp3aW5kb3cteT0iLTgiIGlua3NjYXBlOnpvb209IjEwLjA5NTE1OCIgb2JqZWN0dG9sZXJhbmNlPSIxMCIgcGFnZWNvbG9yPSIjZmZmZmZmIiBzaG93Z3JpZD0iZmFsc2UiPiYjeGE7CTwvc29kaXBvZGk6bmFtZWR2aWV3PiYjeGE7PGcgaWQ9ImcxNzU2NjkiIHRyYW5zZm9ybT0idHJhbnNsYXRlKC05LjU2MjU0MTcsLTkuNTYxMzEpIj4mI3hhOwk8dGl0bGUgaWQ9InRpdGxlMTc1NjU5Ij5QYWdlLTE8L3RpdGxlPiYjeGE7CTxnIGlkPSJncm91cDIyNTAtMSIgdHJhbnNmb3JtPSJ0cmFuc2xhdGUoOS41NjMwOCwtOS4zNzg2OSkiPiYjeGE7CQk8dGl0bGUgaWQ9InRpdGxlMTc1NjYxIj5HaXRIdWI8L3RpdGxlPiYjeGE7CQk8ZyBpZD0ic2hhcGUyMjUxLTIiPiYjeGE7CQkJPHRpdGxlIGlkPSJ0aXRsZTE3NTY2MyI+U2hlZXQuMjI1MTwvdGl0bGU+JiN4YTsJCQk8cGF0aCBpZD0icGF0aDE3NTY2NSIgaW5rc2NhcGU6Y29ubmVjdG9yLWN1cnZhdHVyZT0iMCIgZD0iTTIyLjYzLDE4Ljk0QzEwLjE0LDE4Ljk0LDAsMjkuMzMsMCw0Mi4xNSAgICAgYy0wLjA3LDkuODksNi4xNSwxOC43MywxNS40OCwyMi4wMWMxLjEzLDAuMjIsMS41NC0wLjUsMS41NC0xLjExYzAtMC42MiwwLTIuMDEsMC0zLjk1Yy02LjI5LDEuNDEtNy42Mi0zLjExLTcuNjItMy4xMSAgICAgYy0xLjAzLTIuNjgtMi41MS0zLjQtMi41MS0zLjRjLTIuMDYtMS40MSwwLjE1LTEuNDEsMC4xNS0xLjQxYzIuMjcsMC4xNiwzLjQ3LDIuMzksMy40NywyLjM5YzIuMDIsMy41NCw1LjMsMi41Miw2LjU4LDEuOTMgICAgIGMwLjEtMS4xNywwLjYtMi4yNiwxLjQyLTMuMUMxMy40OCw1MS44MSw4LjIsNDkuODIsOC4yLDQwLjkyYy0wLjA0LTIuMjksMC43OS00LjUxLDIuMzItNi4yMmMtMC42OS0yLTAuNjEtNC4xOSwwLjIyLTYuMTQgICAgIGMwLDAsMS45MS0wLjYyLDYuMjMsMi40YzMuNy0xLjA0LDcuNjItMS4wNCwxMS4zMiwwYzQuMzItMyw2LjIyLTIuMzcsNi4yMi0yLjM3YzAuODMsMS45NSwwLjkxLDQuMTQsMC4yMiw2LjE0ICAgICBjMS41MywxLjcsMi4zNywzLjkzLDIuMzMsNi4yMmMwLDguOTEtNS4yOSwxMC44OC0xMC4zMywxMS40NWMwLjgxLDAuNzEsMS41MywyLjEyLDEuNTMsNC4zYzAsMy4xMSwwLDUuNjEsMCw2LjM3ICAgICBjMCwwLjYyLDAuNDEsMS4zNCwxLjU2LDEuMTJjOS4zMy0zLjMsMTUuNTMtMTIuMTUsMTUuNDUtMjIuMDRDNDUuMjcsMjkuMzMsMzUuMTMsMTguOTQsMjIuNjMsMTguOTR6Ii8+JiN4YTsJCTwvZz4mI3hhOwk8L2c+JiN4YTs8L2c+JiN4YTs8L3N2Zz4=;spacingTop=4;clipPath=inset(0% 0% 0% 0.33% round 5%);" parent="1" vertex="1">
          <mxGeometry x="397" y="-501" width="59.800000000000004" height="60" as="geometry" />
        </mxCell>
        <mxCell id="x5Qx7wWfgq4q1o_DWIzA-21" value="" style="edgeStyle=orthogonalEdgeStyle;rounded=0;orthogonalLoop=1;jettySize=auto;html=1;strokeColor=#007FFF;" parent="1" source="AcxdMaKK0mU5kZiv2lnr-37" target="x5Qx7wWfgq4q1o_DWIzA-1" edge="1">
          <mxGeometry relative="1" as="geometry">
            <Array as="points">
              <mxPoint x="281" y="-599" />
              <mxPoint x="281" y="-472" />
            </Array>
            <mxPoint x="331" y="-475" as="targetPoint" />
          </mxGeometry>
        </mxCell>
        <mxCell id="AcxdMaKK0mU5kZiv2lnr-37" value="Visual Studio&#xa;Code" style="shape=image;verticalLabelPosition=bottom;labelBackgroundColor=none;verticalAlign=top;aspect=fixed;imageAspect=0;image=data:image/svg+xml,PHN2ZyB4bWxuczpkYz0iaHR0cDovL3B1cmwub3JnL2RjL2VsZW1lbnRzLzEuMS8iIHhtbG5zOmNjPSJodHRwOi8vY3JlYXRpdmVjb21tb25zLm9yZy9ucyMiIHhtbG5zOnJkZj0iaHR0cDovL3d3dy53My5vcmcvMTk5OS8wMi8yMi1yZGYtc3ludGF4LW5zIyIgeG1sbnM6c3ZnPSJodHRwOi8vd3d3LnczLm9yZy8yMDAwL3N2ZyIgeG1sbnM9Imh0dHA6Ly93d3cudzMub3JnLzIwMDAvc3ZnIiB4bWxuczp4bGluaz0iaHR0cDovL3d3dy53My5vcmcvMTk5OS94bGluayIgeG1sbnM6c29kaXBvZGk9Imh0dHA6Ly9zb2RpcG9kaS5zb3VyY2Vmb3JnZS5uZXQvRFREL3NvZGlwb2RpLTAuZHRkIiB4bWxuczppbmtzY2FwZT0iaHR0cDovL3d3dy5pbmtzY2FwZS5vcmcvbmFtZXNwYWNlcy9pbmtzY2FwZSIgdmVyc2lvbj0iMS4xIiBpZD0iTGF5ZXJfMSIgeD0iMHB4IiB5PSIwcHgiIHZpZXdCb3g9IjAgMCA1MC44NDk5OTggNTEuMDkiIHhtbDpzcGFjZT0icHJlc2VydmUiIHNvZGlwb2RpOmRvY25hbWU9InZpc3VhbF9zdHVkaW9fY29kZS5zdmciIHdpZHRoPSI1MC44NDk5OTgiIGhlaWdodD0iNTEuMDkiIGlua3NjYXBlOnZlcnNpb249IjAuOTIuMyAoMjQwNTU0NiwgMjAxOC0wMy0xMSkiPjxtZXRhZGF0YSBpZD0ibWV0YWRhdGE0MzE4OSI+PHJkZjpSREY+PGNjOldvcmsgcmRmOmFib3V0PSIiPjxkYzpmb3JtYXQ+aW1hZ2Uvc3ZnK3htbDwvZGM6Zm9ybWF0PjxkYzp0eXBlIHJkZjpyZXNvdXJjZT0iaHR0cDovL3B1cmwub3JnL2RjL2RjbWl0eXBlL1N0aWxsSW1hZ2UiLz48ZGM6dGl0bGUvPjwvY2M6V29yaz48L3JkZjpSREY+PC9tZXRhZGF0YT48ZGVmcyBpZD0iZGVmczQzMTg3Ii8+PHNvZGlwb2RpOm5hbWVkdmlldyBwYWdlY29sb3I9IiNmZmZmZmYiIGJvcmRlcmNvbG9yPSIjNjY2NjY2IiBib3JkZXJvcGFjaXR5PSIxIiBvYmplY3R0b2xlcmFuY2U9IjEwIiBncmlkdG9sZXJhbmNlPSIxMCIgZ3VpZGV0b2xlcmFuY2U9IjEwIiBpbmtzY2FwZTpwYWdlb3BhY2l0eT0iMCIgaW5rc2NhcGU6cGFnZXNoYWRvdz0iMiIgaW5rc2NhcGU6d2luZG93LXdpZHRoPSIxOTIwIiBpbmtzY2FwZTp3aW5kb3ctaGVpZ2h0PSIxMDE3IiBpZD0ibmFtZWR2aWV3NDMxODUiIHNob3dncmlkPSJmYWxzZSIgZml0LW1hcmdpbi10b3A9IjAiIGZpdC1tYXJnaW4tbGVmdD0iMCIgZml0LW1hcmdpbi1yaWdodD0iMCIgZml0LW1hcmdpbi1ib3R0b209IjAiIGlua3NjYXBlOnpvb209IjEuMDMwMzAzIiBpbmtzY2FwZTpjeD0iLTYuNTU1IiBpbmtzY2FwZTpjeT0iLTI5Ni4wNyIgaW5rc2NhcGU6d2luZG93LXg9Ii04IiBpbmtzY2FwZTp3aW5kb3cteT0iLTgiIGlua3NjYXBlOndpbmRvdy1tYXhpbWl6ZWQ9IjEiIGlua3NjYXBlOmN1cnJlbnQtbGF5ZXI9IkxheWVyXzEiLz4mI3hhOyYjeGE7PGcgaWQ9Imc0MzE4MiIgdHJhbnNmb3JtPSJ0cmFuc2xhdGUoLTMwMy45MywtNzMuNTkpIj4mI3hhOwk8ZGVmcyBpZD0iZGVmczQzMTY3Ij4mI3hhOwkJPHJlY3QgaWQ9IlNWR0lEXzNfIiB4PSIzMDMuOTI5OTkiIHk9IjczLjU4OTk5NiIgd2lkdGg9IjUxLjI1IiBoZWlnaHQ9IjUxLjI1Ii8+JiN4YTsJPC9kZWZzPiYjeGE7CTxjbGlwUGF0aCBpZD0iU1ZHSURfNF8iPiYjeGE7CQk8dXNlIHhsaW5rOmhyZWY9IiNTVkdJRF8zXyIgc3R5bGU9Im92ZXJmbG93OnZpc2libGUiIGlkPSJ1c2U0MzE2OSIgeD0iMCIgeT0iMCIgd2lkdGg9IjEwMCUiIGhlaWdodD0iMTAwJSIvPiYjeGE7CTwvY2xpcFBhdGg+JiN4YTsJPGcgY2xpcC1wYXRoPSJ1cmwoI1NWR0lEXzRfKSIgaWQ9Imc0MzE4MCI+JiN4YTsJCTxkZWZzIGlkPSJkZWZzNDMxNzMiPiYjeGE7CQkJPHJlY3QgaWQ9IlNWR0lEXzVfIiB4PSIzMDMuOTI5OTkiIHk9IjczLjU4OTk5NiIgd2lkdGg9IjUxLjI1IiBoZWlnaHQ9IjUxLjI1Ii8+JiN4YTsJCTwvZGVmcz4mI3hhOwkJPGNsaXBQYXRoIGlkPSJTVkdJRF82XyI+JiN4YTsJCQk8dXNlIHhsaW5rOmhyZWY9IiNTVkdJRF81XyIgc3R5bGU9Im92ZXJmbG93OnZpc2libGUiIGlkPSJ1c2U0MzE3NSIgeD0iMCIgeT0iMCIgd2lkdGg9IjEwMCUiIGhlaWdodD0iMTAwJSIvPiYjeGE7CQk8L2NsaXBQYXRoPiYjeGE7CQk8cGF0aCBzdHlsZT0iZmlsbDojMDE3OWNiIiBkPSJtIDMwOS44NywxMDUuMDIgNi4yMywtNS42NiAtNi4yMywtNi4yMyBWIDEwNSBaIG0gMzEuNTEsMy4zIFYgODkuOTUgbCAtMTEuODksOS4xOSAxMS44Nyw5LjE3IGggMC4wMiB6IG0gLTE5LjM1LC0zLjQ0IC0xMi42LDkuNzggLTUuNSwtMi43IFYgODYuMzUgbCA1LjQ4LC0yLjc2IDEyLjUyLDkuODQgMTkuODIsLTE5Ljg0IDEzLjAzLDUuMjMgdiA0MC41OSBsIC0xMi45OCw1LjI3IHoiIGNsaXAtcGF0aD0idXJsKCNTVkdJRF82XykiIGlkPSJwYXRoNDMxNzgiIGlua3NjYXBlOmNvbm5lY3Rvci1jdXJ2YXR1cmU9IjAiLz4mI3hhOwk8L2c+JiN4YTs8L2c+JiN4YTs8L3N2Zz4=;" parent="1" vertex="1">
          <mxGeometry x="300" y="-624.63" width="51" height="51" as="geometry" />
        </mxCell>
        <mxCell id="x5Qx7wWfgq4q1o_DWIzA-20" value="" style="edgeStyle=orthogonalEdgeStyle;rounded=0;orthogonalLoop=1;jettySize=auto;html=1;strokeColor=#007FFF;" parent="1" source="AcxdMaKK0mU5kZiv2lnr-38" target="AcxdMaKK0mU5kZiv2lnr-37" edge="1">
          <mxGeometry relative="1" as="geometry">
            <Array as="points">
              <mxPoint x="240" y="-647" />
              <mxPoint x="326" y="-647" />
            </Array>
          </mxGeometry>
        </mxCell>
        <mxCell id="AcxdMaKK0mU5kZiv2lnr-38" value="SRE" style="shape=image;verticalLabelPosition=bottom;labelBackgroundColor=none;verticalAlign=top;aspect=fixed;imageAspect=0;image=data:image/svg+xml,PHN2ZyB4bWxuczpjYz0iaHR0cDovL2NyZWF0aXZlY29tbW9ucy5vcmcvbnMjIiB4bWxuczpkYz0iaHR0cDovL3B1cmwub3JnL2RjL2VsZW1lbnRzLzEuMS8iIHhtbG5zOmlua3NjYXBlPSJodHRwOi8vd3d3Lmlua3NjYXBlLm9yZy9uYW1lc3BhY2VzL2lua3NjYXBlIiB4bWxuczpyZGY9Imh0dHA6Ly93d3cudzMub3JnLzE5OTkvMDIvMjItcmRmLXN5bnRheC1ucyMiIHhtbG5zOnNvZGlwb2RpPSJodHRwOi8vc29kaXBvZGkuc291cmNlZm9yZ2UubmV0L0RURC9zb2RpcG9kaS0wLmR0ZCIgeG1sbnM6c3ZnPSJodHRwOi8vd3d3LnczLm9yZy8yMDAwL3N2ZyIgeG1sbnM9Imh0dHA6Ly93d3cudzMub3JnLzIwMDAvc3ZnIiB4bWxuczp4bGluaz0iaHR0cDovL3d3dy53My5vcmcvMTk5OS94bGluayIgdmVyc2lvbj0iMS4xIiBpZD0ic3ZnMzExODM2IiBpbmtzY2FwZTp2ZXJzaW9uPSIwLjkyLjMgKDI0MDU1NDYsIDIwMTgtMDMtMTEpIiBzb2RpcG9kaTpkb2NuYW1lPSJkZXZlbG9wZXJfNS5zdmciIHg9IjBweCIgeT0iMHB4IiB2aWV3Qm94PSIwIDAgMTkuMjkgNDguMDciIHN0eWxlPSJlbmFibGUtYmFja2dyb3VuZDpuZXcgMCAwIDE5LjI5IDQ4LjA3OyIgeG1sOnNwYWNlPSJwcmVzZXJ2ZSI+JiN4YTs8c29kaXBvZGk6bmFtZWR2aWV3IGJvcmRlcmNvbG9yPSIjNjY2NjY2IiBib3JkZXJvcGFjaXR5PSIxIiBmaXQtbWFyZ2luLWJvdHRvbT0iMCIgZml0LW1hcmdpbi1sZWZ0PSIwIiBmaXQtbWFyZ2luLXJpZ2h0PSIwIiBmaXQtbWFyZ2luLXRvcD0iMCIgZ3JpZHRvbGVyYW5jZT0iMTAiIGd1aWRldG9sZXJhbmNlPSIxMCIgaWQ9Im5hbWVkdmlldzMxMTgzOCIgaW5rc2NhcGU6Y3VycmVudC1sYXllcj0ic3ZnMzExODM2IiBpbmtzY2FwZTpjeD0iMTIuODYzMjIyIiBpbmtzY2FwZTpjeT0iMzIuMDQ4MDkyIiBpbmtzY2FwZTpwYWdlb3BhY2l0eT0iMCIgaW5rc2NhcGU6cGFnZXNoYWRvdz0iMiIgaW5rc2NhcGU6d2luZG93LWhlaWdodD0iMTAxNyIgaW5rc2NhcGU6d2luZG93LW1heGltaXplZD0iMSIgaW5rc2NhcGU6d2luZG93LXdpZHRoPSIxOTIwIiBpbmtzY2FwZTp3aW5kb3cteD0iLTgiIGlua3NjYXBlOndpbmRvdy15PSItOCIgaW5rc2NhcGU6em9vbT0iMTMuNTI3NzczIiBvYmplY3R0b2xlcmFuY2U9IjEwIiBwYWdlY29sb3I9IiNmZmZmZmYiIHNob3dncmlkPSJmYWxzZSI+JiN4YTsJPC9zb2RpcG9kaTpuYW1lZHZpZXc+JiN4YTs8ZyBpZD0iZzMxMTgzNCIgdHJhbnNmb3JtPSJ0cmFuc2xhdGUoLTAuMDAxNzcxNzcsMC4wMDM0KSI+JiN4YTsJPHRpdGxlIGlkPSJ0aXRsZTMxMTYyOSI+UGFnZS0xPC90aXRsZT4mI3hhOwk8ZyBpZD0iZ3JvdXA3MDY1LTEiPiYjeGE7CQk8dGl0bGUgaWQ9InRpdGxlMzExNjMxIj5EZXZlbG9wZXIgIzU8L3RpdGxlPiYjeGE7CQk8ZyBpZD0ic2hhcGU3MDY2LTIiIHRyYW5zZm9ybT0idHJhbnNsYXRlKDExLjQ3MzcsLTEuMzYyMjQpIj4mI3hhOwkJCTx0aXRsZSBpZD0idGl0bGUzMTE2MzMiPlNoZWV0LjcwNjY8L3RpdGxlPiYjeGE7CQkJPHBhdGggaWQ9InBhdGgzMTE2MzUiIGlua3NjYXBlOmNvbm5lY3Rvci1jdXJ2YXR1cmU9IjAiIGQ9Ik0wLDQ3Ljk3bDIuMzEsMC4xbDAuMDItMi45MmgtMi4xTDAsNDcuOTd6Ii8+JiN4YTsJCTwvZz4mI3hhOwkJPGcgaWQ9InNoYXBlNzA2Ny00IiB0cmFuc2Zvcm09InRyYW5zbGF0ZSgxMC44OTA0KSI+JiN4YTsJCQk8dGl0bGUgaWQ9InRpdGxlMzExNjM4Ij5TaGVldC43MDY3PC90aXRsZT4mI3hhOwkJCTxwYXRoIGlkPSJwYXRoMzExNjQwIiBpbmtzY2FwZTpjb25uZWN0b3ItY3VydmF0dXJlPSIwIiBzdHlsZT0iZmlsbDojNUMyRDkxOyIgZD0iTTAsNDcuODZjMi4xNiwwLjExLDIuMTYsMC4xMSwyLjE2LDAuMTEgICAgIGMwLjEyLTAuMzMsMC4xMi0wLjMzLDAuMTItMC4zM2MwLjcxLDAuMTEsMi4xNiwwLjMzLDIuOTgsMC40M2MwLjU2LDAsMS4zNCwwLDEuNzktMC4yMWMwLDAsMC4xNC0wLjExLDAuMTQtMC4yMiAgICAgYzAtMC44Ni0zLjQyLTEuMzItNC4zMS0yLjNjLTAuMTIsMC0wLjEyLDAtMC4xMiwwQzIuNSw0NS41NiwyLjI4LDQ2LDEuNzMsNDZjLTAuNTYsMC0xLjAxLTAuNTUtMS4yNC0wLjY2ICAgICBDMC4xMiw0NS41NiwwLDQ3Ljc1LDAsNDcuODZ6Ii8+JiN4YTsJCTwvZz4mI3hhOwkJPGcgaWQ9InNoYXBlNzA2OC02IiB0cmFuc2Zvcm09InRyYW5zbGF0ZSgzLjExMjg1LC0wLjM4OTIxMykiPiYjeGE7CQkJPHRpdGxlIGlkPSJ0aXRsZTMxMTY0MyI+U2hlZXQuNzA2ODwvdGl0bGU+JiN4YTsJCQk8cGF0aCBpZD0icGF0aDMxMTY0NSIgaW5rc2NhcGU6Y29ubmVjdG9yLWN1cnZhdHVyZT0iMCIgc3R5bGU9ImZpbGw6IzVDMkQ5MTsiIGQ9Ik0xLjE1LDQ1LjM0YzAsMC40OCwwLDAuNDgsMCwwLjQ4ICAgICBDMCw0Ny4zNSwwLDQ3LjM1LDAsNDcuMzVjMCwwLjUxLDAsMC41MSwwLDAuNTFjMCwwLjExLDAuMTEsMC4yMSwwLjIyLDAuMjFjMi40NywwLDIuNDcsMCwyLjQ3LDBjMC4yNSwwLDAuNDItMC4yMSwwLjQyLTAuNDMgICAgIGMwLTEuNDksMC0xLjQ5LDAtMS40OWMwLTAuNDgsMC0wLjQ4LDAtMC40OGMwLTAuMzMsMC0wLjMzLDAtMC4zM0wxLjE1LDQ1LjM0eiIvPiYjeGE7CQk8L2c+JiN4YTsJCTxnIGlkPSJzaGFwZTcwNjktOCIgdHJhbnNmb3JtPSJ0cmFuc2xhdGUoNC4yNzk0OCwtMy4xMTM3KSI+JiN4YTsJCQk8dGl0bGUgaWQ9InRpdGxlMzExNjQ4Ij5TaGVldC43MDY5PC90aXRsZT4mI3hhOwkJCTxwYXRoIGlkPSJwYXRoMzExNjUwIiBpbmtzY2FwZTpjb25uZWN0b3ItY3VydmF0dXJlPSIwIiBzdHlsZT0iZmlsbDojMDA3OEQ3OyIgZD0iTTcuMyw0OC4wN2MtMC4xOC0xLjE3LDAuMjMtNi45NC0wLjAzLTExLjA4ICAgICBjLTAuMjYtNC4wNC0xLjI1LTUuNjktMS4yNS01LjY5cy0wLjMzLTAuMjItMC40MSwwLjFjLTAuMDMsMC4xNS0xLjg4LDUuMy0xLjg4LDUuM3MtMS4yMSw5LjM1LTEuNywxMS4zN2MtMi4wMywwLTIuMDMsMC0yLjAzLDAgICAgIGMwLjUyLTEyLjAxLDAuNTItMTIuMDEsMC41Mi0xMi4wMWMwLjg5LTguNjIsMC44OS04LjYyLDAuODktOC42MmM4LjM3LTMuMzEsOC4zNy0zLjMxLDguMzctMy4zMWMtMC4yMywxLjE4LDAuOTEsNy4yLDAuODgsMTIuNzUgICAgIGMtMC4wOCw0LjY5LTEuMTQsMTAuMzEtMS4xMSwxMS4xOUw3LjMsNDguMDd6Ii8+JiN4YTsJCTwvZz4mI3hhOwkJPGcgaWQ9InNoYXBlNzA3MC0xMCIgdHJhbnNmb3JtPSJ0cmFuc2xhdGUoMy44OTA2LC0yLjkxOTA5KSI+JiN4YTsJCQk8dGl0bGUgaWQ9InRpdGxlMzExNjUzIj5TaGVldC43MDcwPC90aXRsZT4mI3hhOwkJCTxwYXRoIGlkPSJwYXRoMzExNjU1IiBpbmtzY2FwZTpjb25uZWN0b3ItY3VydmF0dXJlPSIwIiBzdHlsZT0iZmlsbDojMDA3OEQ3OyIgZD0iTTIuNjEsNDguMDdjLTIuNjEsMC0yLjYxLDAtMi42MSwwICAgICBjMC41Ni0xMi4zNCwwLjU2LTEyLjM0LDAuNTYtMTIuMzRjMC44Ny04Ljc5LDAuODctOC43OSwwLjg3LTguNzljOS4wNS0zLjU5LDkuMDUtMy41OSw5LjA1LTMuNTljLTAuMTEsMC41Ni0wLjExLDAuNTYtMC4xMSwwLjU2ICAgICBjLTAuMDgsMC40OCwwLjA3LDEuOTQsMC4yNSwzLjYzYzAuMjksMi40NCwwLjY2LDUuODEsMC42Miw5LjAzYy0wLjA0LDMuMDgtMC41MSw2LjU2LTAuODQsOC44M2MtMC4xNCwxLjE3LTAuMjUsMi4wNS0wLjI1LDIuMzQgICAgIGMwLjAzLDAuMzMsMC4wMywwLjMzLDAuMDMsMC4zM2MtMi44MywwLTIuODMsMC0yLjgzLDBjLTAuMDctMC4yNi0wLjA3LTAuMjYtMC4wNy0wLjI2Yy0wLjA3LTAuNTQtMC4wNC0xLjkzLDAtMy43ICAgICBjMC4wNy0yLjI2LDAuMTEtNS4wOC0wLjA0LTcuNDNjLTAuMTgtMy4xOC0wLjg1LTQuODMtMS4wNy01LjM0Yy0wLjI5LDAuODEtMS41NCw0LjI5LTEuODMsNS4xMmMtMC4wNywwLjctMS4yMiw5LjM4LTEuNjksMTEuMzUgICAgIEwyLjYxLDQ4LjA3eiBNMC42Nyw0Ny40NWMxLjQzLDAsMS40MywwLDEuNDMsMGMwLjUxLTIuNDEsMS42Mi0xMS4wMiwxLjY2LTExLjFjMC0wLjA3LDAtMC4wNywwLTAuMDdjMC43Mi0yLDEuODMtNS4xMiwxLjg3LTUuMjYgICAgIGMwLjA3LTAuMjIsMC4yMi0wLjMsMC4yOS0wLjMzYzAuMjktMC4xMSwwLjU1LDAuMDMsMC41OSwwLjA3YzAuMDgsMC4wNCwwLjA4LDAuMDQsMC4wOCwwLjA0YzAuMDMsMC4wNywwLjAzLDAuMDcsMC4wMywwLjA3ICAgICBjMC4wNCwwLjA3LDAuOTksMS43NSwxLjI0LDUuNzhjMC4xNSwyLjM4LDAuMDgsNS4yLDAuMDQsNy40NmMtMC4wNCwxLjQ0LTAuMDcsMi43Mi0wLjA0LDMuMzRjMS42OSwwLDEuNjksMCwxLjY5LDAgICAgIGMwLTAuNDQsMC4xMS0xLjEzLDAuMjctMi4xMmMwLjI5LTIuMjcsMC43Ni01LjcyLDAuOC04Ljc2YzAuMDQtMy4xOC0wLjMzLTYuNTItMC41OC04Ljk2Yy0wLjE4LTEuNTEtMC4yOS0yLjYtMC4yOS0zLjMgICAgIGMtNy43MiwzLjA4LTcuNzIsMy4wOC03LjcyLDMuMDhjLTAuODUsOC4zOC0wLjg1LDguMzgtMC44NSw4LjM4TDAuNjcsNDcuNDV6Ii8+JiN4YTsJCTwvZz4mI3hhOwkJPGcgaWQ9InNoYXBlNzA3MS0xMiIgdHJhbnNmb3JtPSJ0cmFuc2xhdGUoNC44NjI3OSwtMjMuNzQyKSI+JiN4YTsJCQk8dGl0bGUgaWQ9InRpdGxlMzExNjU4Ij5TaGVldC43MDcxPC90aXRsZT4mI3hhOwkJCTxwYXRoIGlkPSJwYXRoMzExNjYwIiBpbmtzY2FwZTpjb25uZWN0b3ItY3VydmF0dXJlPSIwIiBzdHlsZT0iZmlsbDojRTZFN0U4OyIgZD0iTTcuNTgsNDguMDdIMC4zNmwtMC4xMy04Ljg4TDAsMzQuNTRsNi44OS0wLjQ4ICAgICBMNy41OCw0OC4wN3oiLz4mI3hhOwkJPC9nPiYjeGE7CQk8ZyBpZD0ic2hhcGU3MDcyLTE0IiB0cmFuc2Zvcm09InRyYW5zbGF0ZSg0Ljg2Mjc5LC0zNS44MDc2KSI+JiN4YTsJCQk8dGl0bGUgaWQ9InRpdGxlMzExNjYzIj5TaGVldC43MDcyPC90aXRsZT4mI3hhOwkJCTxwYXRoIGlkPSJwYXRoMzExNjY1IiBpbmtzY2FwZTpjb25uZWN0b3ItY3VydmF0dXJlPSIwIiBzdHlsZT0iZmlsbDojRTZFN0U4OyIgZD0iTTAuNjYsNDguMDdMMCw0NS4ybDQuNjQtMS4wMmwwLjYxLDIuODQgICAgIEwwLjY2LDQ4LjA3eiIvPiYjeGE7CQk8L2c+JiN4YTsJCTxnIGlkPSJzaGFwZTcwNzMtMTYiIHRyYW5zZm9ybT0idHJhbnNsYXRlKDkuOTE4MTgsLTIzLjc0MikiPiYjeGE7CQkJPHRpdGxlIGlkPSJ0aXRsZTMxMTY2OCI+U2hlZXQuNzA3MzwvdGl0bGU+JiN4YTsJCQk8cGF0aCBpZD0icGF0aDMxMTY3MCIgaW5rc2NhcGU6Y29ubmVjdG9yLWN1cnZhdHVyZT0iMCIgc3R5bGU9ImZpbGw6I0U2RTdFODsiIGQ9Ik0wLDQ4LjA3aDQuNjdsMC4xNy04Ljg0bDAuMjItNC42M0wwLDM0LjI1ICAgICBWNDguMDd6Ii8+JiN4YTsJCTwvZz4mI3hhOwkJPGcgaWQ9InNoYXBlNzA3NC0xOCIgdHJhbnNmb3JtPSJ0cmFuc2xhdGUoOS41MjkzMSwtMzUuODA3NikiPiYjeGE7CQkJPHRpdGxlIGlkPSJ0aXRsZTMxMTY3MyI+U2hlZXQuNzA3NDwvdGl0bGU+JiN4YTsJCQk8cGF0aCBpZD0icGF0aDMxMTY3NSIgaW5rc2NhcGU6Y29ubmVjdG9yLWN1cnZhdHVyZT0iMCIgc3R5bGU9ImZpbGw6I0U2RTdFODsiIGQ9Ik01LjA2LDQ4LjA3bC01LjA2LTFsMC42LTIuODlsNS4wNCwxLjA0ICAgICBMNS4wNiw0OC4wN3oiLz4mI3hhOwkJPC9nPiYjeGE7CQk8ZyBpZD0ic2hhcGU3MDc1LTIwIiB0cmFuc2Zvcm09InRyYW5zbGF0ZSg3LjE5NjA1LC0zMi4zMDQ2KSI+JiN4YTsJCQk8dGl0bGUgaWQ9InRpdGxlMzExNjc4Ij5TaGVldC43MDc1PC90aXRsZT4mI3hhOwkJCTxwYXRoIGlkPSJwYXRoMzExNjgwIiBpbmtzY2FwZTpjb25uZWN0b3ItY3VydmF0dXJlPSIwIiBzdHlsZT0iZmlsbDojMDBCMjk0OyIgZD0iTTQuNDEsNDYuMDJjLTAuMTgsMC0wLjM2LDAuMDQtMC41MiwwLjE1ICAgICBjMC0wLjExLTAuMDQtMC4xOC0wLjA3LTAuMjZjLTAuMDgtMC4xOC0wLjA4LTAuMTgtMC4wOC0wLjE4Yy0wLjAzLTAuMTgtMC4xMS0wLjMzLTAuMTEtMC40YzAuMDgtMC4xNCwwLjA4LTAuMTQsMC4wOC0wLjE0ICAgICBjMC0wLjA0LDAtMC4wNC0wLjA0LTAuMDhjLTAuMTEtMC4xMi0wLjExLTAuMTItMC4xMS0wLjEyYzAtMC4wNC0wLjA0LTAuMDQtMC4wNC0wLjA0Yy0wLjQxLDAtMC40MSwwLTAuNDEsMCAgICAgYy0wLjA0LDAtMC4wNywwLjA0LTAuMDcsMC4wOGMwLDAuMDUsMC4wMywwLjA4LDAuMDcsMC4wOGMwLjM4LDAsMC4zOCwwLDAuMzgsMGMwLjA3LDAuMDgsMC4wNywwLjA4LDAuMDcsMC4wOCAgICAgYy0wLjA3LDAuMTQtMC4wNywwLjE0LTAuMDcsMC4xNHMwLDAsMCwwLjA0YzAuMDMsMCwwLjA3LDAuMTQsMC4xNCwwLjMzYy0xLjUyLDAtMS41MiwwLTEuNTIsMGMtMC4wMy0wLjExLTAuMDMtMC4xMS0wLjAzLTAuMTEgICAgIGMwLjE0LTAuMDQsMC4zNC0wLjExLDAuNDEtMC4yMmMtMC45MywwLTAuOTMsMC0wLjkzLDBjMCwwLjE0LDAuMTUsMC4yNSwwLjM0LDAuMjVjMC4wMywwLDAuMDMsMCwwLjA3LDBsMCwwICAgICBjMC4wNCwwLjE1LDAuMDQsMC4xNSwwLjA0LDAuMTVjLTAuMzcsMC40NC0wLjM3LDAuNDQtMC4zNywwLjQ0Yy0wLjE5LTAuMTEtMC4zOC0wLjE5LTAuNTktMC4xOUMwLjQ5LDQ2LjAyLDAsNDYuNDYsMCw0Ny4wNSAgICAgYzAsMC41NCwwLjQ5LDEuMDIsMS4wNSwxLjAyYzAuNDcsMCwwLjg4LTAuMzMsMC45OS0wLjc3YzAuMjIsMC4wNCwwLjIyLDAuMDQsMC4yMiwwLjA0YzAsMC4wNywwLjA3LDAuMTgsMC4xNiwwLjIyICAgICBjLTAuMDQsMC4yMi0wLjA0LDAuMjItMC4wNCwwLjIyYy0wLjEyLDAtMC4xMiwwLTAuMTIsMGMtMC4wNCwwLTAuMDcsMC0wLjA3LDAuMDNjMCwwLjA0LDAuMDMsMC4wOCwwLjA3LDAuMDhjMC4zLDAsMC4zLDAsMC4zLDAgICAgIGMwLjA0LDAsMC4wNC0wLjA0LDAuMDQtMC4wOGMwLTAuMDMsMC0wLjAzLTAuMDQtMC4wM2MtMC4wNywwLTAuMDcsMC0wLjA3LDBjMC4wNC0wLjIyLDAuMDQtMC4yMiwwLjA0LTAuMjIgICAgIGMwLjE0LDAsMC4yNS0wLjExLDAuMjUtMC4yNmMwLTAuMDMtMC4wMy0wLjA3LTAuMDctMC4xMWMxLjAzLTEuMTMsMS4wMy0xLjEzLDEuMDMtMS4xM2MwLjA0LDAuMDQsMC4wNCwwLjExLDAuMDgsMC4xNSAgICAgYy0wLjI2LDAuMjItMC40NCwwLjQ3LTAuNDQsMC44NGMwLDAuNTQsMC40NCwxLjAyLDEuMDMsMS4wMmMwLjYsMCwxLjAzLTAuNDgsMS4wMy0xLjAyQzUuNDQsNDYuNDYsNS4wMSw0Ni4wMiw0LjQxLDQ2LjAyeiAgICAgIE0xLjA1LDQ3LjkyYy0wLjQ5LDAtMC44OS0wLjQtMC44OS0wLjg3YzAtMC40OCwwLjQtMC44OCwwLjg5LTAuODhjMC4xOCwwLDAuMzIsMC4wNywwLjQ3LDAuMTVjLTAuNDcsMC42Mi0wLjQ3LDAuNjItMC40NywwLjYyICAgICBsMCwwYy0wLjA0LDAtMC4xMSwwLjAzLTAuMTEsMC4xMWgwLjAzYy0wLjAzLDAuMDMtMC4wMywwLjAzLTAuMDMsMC4wM2MwLjA3LDAsMC4wNywwLDAuMDcsMGMwLDAuMDQsMCwwLjA4LDAuMDQsMC4wOCAgICAgYzAuMDMsMCwwLjAzLTAuMDQsMC4wMy0wLjA0YzAuODIsMC4xNSwwLjgyLDAuMTUsMC44MiwwLjE1QzEuNzksNDcuNjMsMS40NSw0Ny45MiwxLjA1LDQ3LjkyeiBNMS45Myw0Ny4wNWMwLDAuMDMsMCwwLjA3LDAsMC4xMSAgICAgYy0wLjc4LTAuMTUtMC43OC0wLjE1LTAuNzgtMC4xNWMwLjQ5LTAuNjIsMC40OS0wLjYyLDAuNDktMC42MkMxLjgyLDQ2LjU3LDEuOTMsNDYuNzksMS45Myw0Ny4wNXogTTEuNzUsNDYuMjggICAgIGMwLjI5LTAuNCwwLjI5LTAuNCwwLjI5LTAuNGMwLjM4LDEuMjQsMC4zOCwxLjI0LDAuMzgsMS4yNGMtMC4wOSwwLjA0LTAuMDksMC4wNC0wLjEyLDAuMTFjLTAuMjItMC4wNy0wLjIyLTAuMDctMC4yMi0wLjA3ICAgICBjMC0wLjA0LDAtMC4wOCwwLTAuMTFDMi4wOCw0Ni43MiwxLjk3LDQ2LjQ2LDEuNzUsNDYuMjh6IE0yLjY3LDQ3LjA1YzAuMDgtMC4yMiwwLjA4LTAuMjIsMC4wOC0wLjIyYzAuMDcsMCwwLjA3LDAsMC4wNywwICAgICBjMC4wNCwwLDAuMDctMC4wNCwwLjA3LTAuMDRjMC0wLjA0LTAuMDMtMC4wNy0wLjA3LTAuMDdjLTAuMjYsMC0wLjI2LDAtMC4yNiwwYy0wLjAzLDAtMC4wNywwLjAzLTAuMDcsMC4wNyAgICAgYzAsMCwwLjA0LDAuMDQsMC4wNywwLjA0YzAuMDQsMCwwLjA0LDAsMC4wNCwwYy0wLjA0LDAuMjUtMC4wNCwwLjI1LTAuMDQsMC4yNWMtMC4wMywwLTAuMDMsMC0wLjAzLDBsMCwwICAgICBjLTAuMzgtMS4yNy0wLjM4LTEuMjctMC4zOC0xLjI3YzEuNTIsMCwxLjUyLDAsMS41MiwwYzAsMC4wMywwLDAuMDcsMC4wNCwwLjFMMi42Nyw0Ny4wNXogTTQuNDEsNDcuOTIgICAgIGMtMC40NywwLTAuODktMC40LTAuODktMC44N2MwLTAuMywwLjE1LTAuNTEsMC4zMy0wLjY2YzAuMDQsMC4wNywwLjA5LDAuMTUsMC4wOSwwLjIyYzAuMTEsMC4xOCwwLjI5LDAuMzMsMC4zNiwwLjQ0bDAsMCAgICAgYzAsMC4wMywwLjA0LDAuMTEsMC4xMSwwLjExczAuMTEtMC4wOCwwLjExLTAuMTFjMC0wLjA4LTAuMDQtMC4xMS0wLjExLTAuMTFsMCwwYy0wLjExLTAuMDgtMC4yOS0wLjIyLTAuMzYtMC40ICAgICBjMC0wLjA0LTAuMDQtMC4xMS0wLjA4LTAuMjJjMC4xMS0wLjA4LDAuMjYtMC4xNSwwLjQ0LTAuMTVjMC40OSwwLDAuODksMC40LDAuODksMC44OEM1LjMsNDcuNTIsNC45LDQ3LjkyLDQuNDEsNDcuOTJ6Ii8+JiN4YTsJCTwvZz4mI3hhOwkJPGcgaWQ9InNoYXBlNzA3Ni0yMiIgdHJhbnNmb3JtPSJ0cmFuc2xhdGUoOS45MTgxOCwtMzguMzM3NCkiPiYjeGE7CQkJPHRpdGxlIGlkPSJ0aXRsZTMxMTY4MyI+U2hlZXQuNzA3NjwvdGl0bGU+JiN4YTsJCQk8cGF0aCBpZD0icGF0aDMxMTY4NSIgaW5rc2NhcGU6Y29ubmVjdG9yLWN1cnZhdHVyZT0iMCIgc3R5bGU9ImZpbGw6I0YyN0FCNDsiIGQ9Ik0wLjE5LDQ3Ljg3YzAsMC4xNC0wLjA5LDAuMi0wLjE0LDAuMiAgICAgYzAsMCwwLDAtMC4wNS0wLjA2QzAuMTksNDcuODcsMC4xOSw0Ny44NywwLjE5LDQ3Ljg3TDAuMTksNDcuODd6Ii8+JiN4YTsJCTwvZz4mI3hhOwkJPGcgaWQ9InNoYXBlNzA3Ny0yNCIgdHJhbnNmb3JtPSJ0cmFuc2xhdGUoOC4xNjgyNCwtMzcuNzUzNikiPiYjeGE7CQkJPHRpdGxlIGlkPSJ0aXRsZTMxMTY4OCI+U2hlZXQuNzA3NzwvdGl0bGU+JiN4YTsJCQk8cGF0aCBpZD0icGF0aDMxMTY5MCIgaW5rc2NhcGU6Y29ubmVjdG9yLWN1cnZhdHVyZT0iMCIgc3R5bGU9ImZpbGw6I0NFOUM1RTsiIGQ9Ik0xLjg1LDQ4LjA3QzAuODQsNDguMDcsMCw0Ny4zOSwwLDQ2LjMzICAgICBjMC0xLjM4LDAtMS4zOCwwLTEuMzhjMy42OSwwLDMuNjksMCwzLjY5LDBjMCwxLjM4LDAsMS4zOCwwLDEuMzhDMy42OSw0Ny4zOSwyLjg3LDQ4LjA3LDEuODUsNDguMDd6Ii8+JiN4YTsJCTwvZz4mI3hhOwkJPGcgaWQ9InNoYXBlNzA3OC0yNiIgdHJhbnNmb3JtPSJ0cmFuc2xhdGUoNy4wMDE2MSwtMzkuNjk5NykiPiYjeGE7CQkJPHRpdGxlIGlkPSJ0aXRsZTMxMTY5MyI+U2hlZXQuNzA3ODwvdGl0bGU+JiN4YTsJCQk8cGF0aCBpZD0icGF0aDMxMTY5NSIgaW5rc2NhcGU6Y29ubmVjdG9yLWN1cnZhdHVyZT0iMCIgc3R5bGU9ImZpbGw6I0NFOUM1RTsiIGQ9Ik01LjgzLDQ0LjE0YzAsMi4zMy0xLjI2LDMuOTMtMi45MywzLjkzICAgICBjLTEuNjYsMC0yLjktMS42LTIuOS0zLjkzYzAtMi4zNSwxLjI0LTQuMjUsMi45LTQuMjVDNS4wMSwzOS44OSw1LjgzLDQxLjc5LDUuODMsNDQuMTR6Ii8+JiN4YTsJCTwvZz4mI3hhOwkJPGcgaWQ9InNoYXBlNzA3OS0yOCIgdHJhbnNmb3JtPSJ0cmFuc2xhdGUoNi42MTI3MywtNDIuNDI0MikiPiYjeGE7CQkJPHRpdGxlIGlkPSJ0aXRsZTMxMTY5OCI+U2hlZXQuNzA3OTwvdGl0bGU+JiN4YTsJCQk8cGF0aCBpZD0icGF0aDMxMTcwMCIgaW5rc2NhcGU6Y29ubmVjdG9yLWN1cnZhdHVyZT0iMCIgc3R5bGU9ImZpbGw6I0NFOUM1RTsiIGQ9Ik0wLjU4LDQ2LjMyYy0wLjMyLDAtMC4zMiwwLTAuMzIsMCAgICAgQzAuMSw0Ni4zMiwwLDQ2LjQ2LDAsNDYuNjNjMCwxLjEzLDAsMS4xMywwLDEuMTNjMCwwLjE3LDAuMSwwLjMxLDAuMjYsMC4zMWMwLjIsMCwwLjIsMCwwLjIsMEwwLjU4LDQ2LjMyeiIvPiYjeGE7CQk8L2c+JiN4YTsJCTxnIGlkPSJzaGFwZTcwODAtMzAiIHRyYW5zZm9ybT0idHJhbnNsYXRlKDEyLjY0MDMsLTQyLjQyNDIpIj4mI3hhOwkJCTx0aXRsZSBpZD0idGl0bGUzMTE3MDMiPlNoZWV0LjcwODA8L3RpdGxlPiYjeGE7CQkJPHBhdGggaWQ9InBhdGgzMTE3MDUiIGlua3NjYXBlOmNvbm5lY3Rvci1jdXJ2YXR1cmU9IjAiIHN0eWxlPSJmaWxsOiNDRTlDNUU7IiBkPSJNMCw0Ni4zMmMwLjQ2LDAsMC40NiwwLDAuNDYsMCAgICAgYzAuMiwwLDAuMzIsMC4xNCwwLjMyLDAuMzFjMCwxLjEzLDAsMS4xMywwLDEuMTNjMCwwLjE3LTAuMTIsMC4zMS0wLjMyLDAuMzFjLTAuMjksMC0wLjI5LDAtMC4yOSwwTDAsNDYuMzJ6Ii8+JiN4YTsJCTwvZz4mI3hhOwkJPGcgaWQ9InNoYXBlNzA4MS0zMiIgdHJhbnNmb3JtPSJ0cmFuc2xhdGUoOC41NTcxMSwtNDMuNTkxOCkiPiYjeGE7CQkJPHRpdGxlIGlkPSJ0aXRsZTMxMTcwOCI+U2hlZXQuNzA4MTwvdGl0bGU+JiN4YTsJCQk8cGF0aCBpZD0icGF0aDMxMTcxMCIgaW5rc2NhcGU6Y29ubmVjdG9yLWN1cnZhdHVyZT0iMCIgc3R5bGU9ImZpbGw6IzIzMUYyMDsiIGQ9Ik0wLjE5LDQ4LjA3YzAuMSwwLDAuMi0wLjA5LDAuMi0wLjIxICAgICBjMC0wLjA4LTAuMS0wLjE4LTAuMi0wLjE4QzAuMDcsNDcuNjgsMCw0Ny43OCwwLDQ3LjlDMCw0Ny45OCwwLjEsNDguMDcsMC4xOSw0OC4wN3oiLz4mI3hhOwkJPC9nPiYjeGE7CQk8ZyBpZD0ic2hhcGU3MDgyLTM0IiB0cmFuc2Zvcm09InRyYW5zbGF0ZSgxMS4wODQ4LC00My4zOTcyKSI+JiN4YTsJCQk8dGl0bGUgaWQ9InRpdGxlMzExNzEzIj5TaGVldC43MDgyPC90aXRsZT4mI3hhOwkJCTxwYXRoIGlkPSJwYXRoMzExNzE1IiBpbmtzY2FwZTpjb25uZWN0b3ItY3VydmF0dXJlPSIwIiBzdHlsZT0iZmlsbDojMjMxRjIwOyIgZD0iTTAuMTksNDguMDdjMC4xLDAsMC4yLTAuMTQsMC4yLTAuMzEgICAgIGMwLTAuMTMtMC4xLTAuMjgtMC4yLTAuMjhDMC4xLDQ3LjQ4LDAsNDcuNjMsMCw0Ny44QzAsNDcuOTMsMC4xLDQ4LjA3LDAuMTksNDguMDd6Ii8+JiN4YTsJCTwvZz4mI3hhOwkJPGcgaWQ9InNoYXBlNzA4My0zNiIgdHJhbnNmb3JtPSJ0cmFuc2xhdGUoOC4xNjgyNCwtMzkuNTA1MSkiPiYjeGE7CQkJPHRpdGxlIGlkPSJ0aXRsZTMxMTcxOCI+U2hlZXQuNzA4MzwvdGl0bGU+JiN4YTsJCQk8cGF0aCBpZD0icGF0aDMxMTcyMCIgaW5rc2NhcGU6Y29ubmVjdG9yLWN1cnZhdHVyZT0iMCIgc3R5bGU9ImZpbGw6I0NFOUM1RTsiIGQ9Ik0wLDQ2LjcxYzMuNSwwLDMuNSwwLDMuNSwwICAgICBjLTAuNDQsMC44My0xLjAzLDEuMzYtMS43NSwxLjM2QzEuMDUsNDguMDcsMC40NSw0Ny41NCwwLDQ2LjcxeiIvPiYjeGE7CQk8L2c+JiN4YTsJCTxnIGlkPSJzaGFwZTcwODQtMzgiIHRyYW5zZm9ybT0idHJhbnNsYXRlKDguMTY4MjQsLTM5LjMxMDUpIj4mI3hhOwkJCTx0aXRsZSBpZD0idGl0bGUzMTE3MjMiPlNoZWV0LjcwODQ8L3RpdGxlPiYjeGE7CQkJPHBhdGggaWQ9InBhdGgzMTE3MjUiIGlua3NjYXBlOmNvbm5lY3Rvci1jdXJ2YXR1cmU9IjAiIHN0eWxlPSJmaWxsOiNCQThENTc7IiBkPSJNMy42OSw0Ni45YzAsMC4yOSwwLDAuMjksMCwwLjI5ICAgICBjMCwwLjI4LTEuMTksMC44OC0xLjg0LDAuODhDMS4yNCw0OC4wNywwLDQ3LjYyLDAsNDcuMTljMC0wLjI5LDAtMC4yOSwwLTAuMjljMC4yNiwwLjI2LDAuNTUsMC40NiwwLjg3LDAuNjEgICAgIGMwLjMsMC4yNCwwLjYyLDAuMzUsMC45OCwwLjM1czAuNjktMC4xMSwwLjk4LTAuMzVDMy4xNiw0Ny4zNiwzLjQ1LDQ3LjE2LDMuNjksNDYuOXoiLz4mI3hhOwkJPC9nPiYjeGE7CQk8ZyBpZD0ic2hhcGU3MDg1LTQwIiB0cmFuc2Zvcm09InRyYW5zbGF0ZSg4Ljc1MTU1LC00MS4wNjE5KSI+JiN4YTsJCQk8dGl0bGUgaWQ9InRpdGxlMzExNzI4Ij5TaGVldC43MDg1PC90aXRsZT4mI3hhOwkJCTxwYXRoIGlkPSJwYXRoMzExNzMwIiBpbmtzY2FwZTpjb25uZWN0b3ItY3VydmF0dXJlPSIwIiBzdHlsZT0iZmlsbDojRkZGRkZGOyIgZD0iTTEuMTcsNDguMDdjMC41NCwwLDAuOC0wLjEyLDEuMTYtMC4yICAgICBjLTAuMTgsMC4wNC0wLjYyLDAuMDgtMS4xNiwwLjA4Yy0wLjU5LDAtMC45OS0wLjA0LTEuMTctMC4wOEMwLjM2LDQ3Ljk1LDAuNjIsNDguMDcsMS4xNyw0OC4wN3oiLz4mI3hhOwkJPC9nPiYjeGE7CQk8ZyBpZD0ic2hhcGU3MDg2LTQyIiB0cmFuc2Zvcm09InRyYW5zbGF0ZSg4Ljc1MTU1LC00MC44NjczKSI+JiN4YTsJCQk8dGl0bGUgaWQ9InRpdGxlMzExNzMzIj5TaGVldC43MDg2PC90aXRsZT4mI3hhOwkJCTxwYXRoIGlkPSJwYXRoMzExNzM1IiBpbmtzY2FwZTpjb25uZWN0b3ItY3VydmF0dXJlPSIwIiBzdHlsZT0iZmlsbDojQkIxNDFBOyIgZD0iTTEuMjksNDguMDdjLTAuMzgsMC0wLjYxLTAuMS0wLjg2LTAuMTUgICAgIGMtMC4wOS0wLjA1LTAuMi0wLjEtMC4zMS0wLjE0Yy0wLjAzLDAtMC4wMywwLTAuMDcsMEwwLDQ3LjczYzAuMDUtMC4wNSwwLjA1LTAuMDUsMC4wOS0wLjA1YzAsMCwwLjAzLDAsMC4wNywwICAgICBjMC4xOCwwLjA1LDAuNjEsMC4xLDEuMTMsMC4xYzAuNDgsMCwwLjkxLTAuMDUsMS4xMy0wLjFjMC4wMywwLDAuMDMsMCwwLjA3LDBzMC4wNCwwLDAuMDQsMC4wNWMwLDAsMCwwLjA1LTAuMDQsMC4wNSAgICAgYzAsMC0wLjA0LDAtMC4wNywwYy0wLjA3LDAuMDQtMC4xOCwwLjA5LTAuMzEsMC4xNEMxLjksNDcuOTcsMS42Myw0OC4wNywxLjI5LDQ4LjA3eiBNMC42MSw0Ny44N2MwLjE5LDAuMDUsMC40MSwwLjEsMC42OCwwLjEgICAgIHMwLjQ4LTAuMDUsMC42OC0wLjFjLTAuMjMsMC0wLjQ1LDAtMC42OCwwQzEuMDIsNDcuODcsMC44LDQ3Ljg3LDAuNjEsNDcuODd6Ii8+JiN4YTsJCTwvZz4mI3hhOwkJPGcgaWQ9InNoYXBlNzA4Ny00NCIgdHJhbnNmb3JtPSJ0cmFuc2xhdGUoOS4zMzQ4NywtNDEuODQwNCkiPiYjeGE7CQkJPHRpdGxlIGlkPSJ0aXRsZTMxMTczOCI+U2hlZXQuNzA4NzwvdGl0bGU+JiN4YTsJCQk8cGF0aCBpZD0icGF0aDMxMTc0MCIgaW5rc2NhcGU6Y29ubmVjdG9yLWN1cnZhdHVyZT0iMCIgc3R5bGU9ImZpbGw6I0JBOEQ1NzsiIGQ9Ik0xLjE3LDQ3LjQ4YzAsMC4xNS0wLjEsMC4zLTAuMjEsMC4yNSAgICAgYy0wLjA0LDAtMC4wNywwLjA5LTAuMTUsMC4xNGMtMC4wNiwwLjEtMC4xMywwLjItMC4yNCwwLjJjLTAuMDcsMC0wLjE4LTAuMS0wLjI0LTAuMmMtMC4wNy0wLjA1LTAuMTEtMC4xNC0wLjExLTAuMTQgICAgIEMwLjA3LDQ3Ljc4LDAsNDcuNjMsMCw0Ny40OGwwLDBDMS4xNyw0Ny40OCwxLjE3LDQ3LjQ4LDEuMTcsNDcuNDhMMS4xNyw0Ny40OHoiLz4mI3hhOwkJPC9nPiYjeGE7CQk8ZyBpZD0ic2hhcGU3MDg4LTQ2IiB0cmFuc2Zvcm09InRyYW5zbGF0ZSg3LjAwMTYxLC00Mi44MTM0KSI+JiN4YTsJCQk8dGl0bGUgaWQ9InRpdGxlMzExNzQzIj5TaGVldC43MDg4PC90aXRsZT4mI3hhOwkJCTxwYXRoIGlkPSJwYXRoMzExNzQ1IiBpbmtzY2FwZTpjb25uZWN0b3ItY3VydmF0dXJlPSIwIiBzdHlsZT0iZmlsbDojRkZCOTAwOyIgZD0iTTYuMDMsNDUuNTRjMCwyLjUzLDAsMi41MywwLDIuNTMgICAgIGMtMC4yNiwwLTAuMjYsMC0wLjI2LDBjLTAuMTQtMy4wNC0wLjE0LTMuMDQtMC4xNC0zLjA0QzQuOCw0NS4xNyw0LjgsNDUuMTcsNC44LDQ1LjE3Yy0xLjE5LDAuMTUtMi4zOCwwLjE1LTMuNTYsMCAgICAgYy0wLjgzLTAuMTQtMC44My0wLjE0LTAuODMtMC4xNGMtMC4xOCwzLTAuMTgsMy0wLjE4LDNjLTAuMjMsMC0wLjIzLDAtMC4yMywwYzAtMi40OSwwLTIuNDksMC0yLjQ5YzAtMS41MSwxLjA1LTIuNzMsMi4zMS0yLjczICAgICBjMS4zOCwwLDEuMzgsMCwxLjM4LDBDNC45OSw0Mi44MSw2LjAzLDQ0LjAzLDYuMDMsNDUuNTR6Ii8+JiN4YTsJCTwvZz4mI3hhOwkJPGcgaWQ9InNoYXBlNzA4OS00OCIgdHJhbnNmb3JtPSJ0cmFuc2xhdGUoMTAuODkwNCwtNDQuMTc1NikiPiYjeGE7CQkJPHRpdGxlIGlkPSJ0aXRsZTMxMTc0OCI+U2hlZXQuNzA4OTwvdGl0bGU+JiN4YTsJCQk8cGF0aCBpZD0icGF0aDMxMTc1MCIgaW5rc2NhcGU6Y29ubmVjdG9yLWN1cnZhdHVyZT0iMCIgc3R5bGU9ImZpbGw6I0ZGQjkwMDsiIGQ9Ik0wLjk3LDQ4LjA3YzAsMC0wLjA2LTAuMDMtMC4xNi0wLjEgICAgIGMtMC4wMywwLTAuMDYtMC4wMi0wLjEzLTAuMDZjLTAuMDItMC4wNC0wLjA2LTAuMDQtMC4wNi0wLjA0cy0wLjA0LTAuMDItMC4wNi0wLjAyYzAsMCwwLDAtMC4wNCwwYy0wLjEzLTAuMDQtMC4yNSwwLTAuMzUsMCAgICAgYy0wLjA0LDAtMC4wNywwLTAuMSwwcy0wLjA3LDAtMC4wNywwbDAsMGMwLTAuMDQsMC0wLjA0LDAtMC4wNHMwLjA3LTAuMDMsMC4xNy0wLjA2YzAuMS0wLjAzLDAuMjItMC4wNywwLjM5LTAuMDMgICAgIGMwLDAsMC4wMiwwLDAuMDYsMGMwLDAsMCwwLDAuMDQsMC4wM2MwLjAyLDAsMC4wNiwwLjAzLDAuMDksMC4wM2MwLjA2LDAuMDcsMC4xLDAuMDksMC4xMiwwLjEzYzAuMDQsMC4wNCwwLjA4LDAuMSwwLjEsMC4xICAgICBDMC45Nyw0OC4wNCwwLjk3LDQ4LjA3LDAuOTcsNDguMDdMMC45Nyw0OC4wN0MwLjk3LDQ4LjA3LDAuOTcsNDguMDcsMC45Nyw0OC4wN3oiLz4mI3hhOwkJPC9nPiYjeGE7CQk8ZyBpZD0ic2hhcGU3MDkwLTUwIiB0cmFuc2Zvcm09InRyYW5zbGF0ZSg4LjE2ODI0LC00NC4xODE3KSI+JiN4YTsJCQk8dGl0bGUgaWQ9InRpdGxlMzExNzUzIj5TaGVldC43MDkwPC90aXRsZT4mI3hhOwkJCTxwYXRoIGlkPSJwYXRoMzExNzU1IiBpbmtzY2FwZTpjb25uZWN0b3ItY3VydmF0dXJlPSIwIiBzdHlsZT0iZmlsbDojRkZCOTAwOyIgZD0iTTAuOTUsNDcuODVjMCwwLTAuMDYsMC0wLjE2LTAuMDMgICAgIGMtMC4wNCwwLTAuMSwwLTAuMTYsMGMtMC4wMiwwLTAuMDYsMC0wLjEsMEgwLjUxSDAuNDdjLTAuMTIsMC4wMy0wLjIxLDAuMS0wLjMxLDAuMTZjLTAuMDMsMC4wMy0wLjA2LDAuMDMtMC4wOSwwLjA3ICAgICBjLTAuMDMsMC0wLjAzLDAtMC4wMywwYzAsMC4wMi0wLjA0LDAuMDItMC4wNCwwbDAsMGMwLDAsMC4wNC0wLjA3LDAuMS0wLjEzYzAuMDktMC4xLDAuMTktMC4xNiwwLjM1LTAuMjRoMC4wMiAgICAgYzAuMDQsMCwwLjA0LDAsMC4wNiwwYzAuMDQsMCwwLjEsMCwwLjE0LDBjMC4wNiwwLDAuMDgsMC4wNCwwLjE2LDAuMDRjMC4wMiwwLjA0LDAuMDgsMC4wNiwwLjA4LDAuMDYgICAgIGMwLjA0LDAuMDQsMC4wNiwwLjA0LDAuMDYsMC4wNHMwLDAsMCwwLjAzQzAuOTcsNDcuODUsMC45NSw0Ny44NSwwLjk1LDQ3Ljg1eiIvPiYjeGE7CQk8L2c+JiN4YTsJCTxnIGlkPSJzaGFwZTcwOTEtNTIiIHRyYW5zZm9ybT0idHJhbnNsYXRlKDkuMzM0ODcsLTQyLjQyNDIpIj4mI3hhOwkJCTx0aXRsZSBpZD0idGl0bGUzMTE3NTgiPlNoZWV0LjcwOTE8L3RpdGxlPiYjeGE7CQkJPHBhdGggaWQ9InBhdGgzMTE3NjAiIGlua3NjYXBlOmNvbm5lY3Rvci1jdXJ2YXR1cmU9IjAiIHN0eWxlPSJmaWxsOiNEOUIwN0Y7IiBkPSJNMC43OCw0Ni4zMmMwLDEuNzUsMCwxLjc1LDAsMS43NSAgICAgYy0wLjc4LDAtMC43OCwwLTAuNzgsMGMwLTAuMDQsMC4wNS0wLjExLDAuMS0wLjE1YzAuMTMtMC4xMSwwLjIzLTAuMywwLjI4LTAuNTNjMC4wMy0wLjc2LDAuMDMtMC43NiwwLjAzLTAuNzYgICAgIEMwLjQxLDQ2LjQsMC42OSw0Ni4zMiwwLjc4LDQ2LjMyeiIvPiYjeGE7CQk8L2c+JiN4YTsJCTxnIGlkPSJzaGFwZTcwOTItNTQiIHRyYW5zZm9ybT0idHJhbnNsYXRlKDIuMzM1MSwtMjQuNTIwNCkiPiYjeGE7CQkJPHRpdGxlIGlkPSJ0aXRsZTMxMTc2MyI+U2hlZXQuNzA5MjwvdGl0bGU+JiN4YTsJCQk8cGF0aCBpZD0icGF0aDMxMTc2NSIgaW5rc2NhcGU6Y29ubmVjdG9yLWN1cnZhdHVyZT0iMCIgc3R5bGU9ImZpbGw6I0U2MUUyNzsiIGQ9Ik00LjA2LDQ4LjA3bDYuMDUtNS45bC00LjEyLTQuMjJMMCw0My44OCAgICAgTDQuMDYsNDguMDd6Ii8+JiN4YTsJCTwvZz4mI3hhOwkJPGcgaWQ9InNoYXBlNzA5My01NiIgdHJhbnNmb3JtPSJ0cmFuc2xhdGUoMi4zMzUxLC0yNC41MjA0KSI+JiN4YTsJCQk8dGl0bGUgaWQ9InRpdGxlMzExNzY4Ij5TaGVldC43MDkzPC90aXRsZT4mI3hhOwkJCTxwYXRoIGlkPSJwYXRoMzExNzcwIiBpbmtzY2FwZTpjb25uZWN0b3ItY3VydmF0dXJlPSIwIiBzdHlsZT0iZmlsbDojRUQ0RTVBOyIgZD0iTTQuMDYsNDguMDdsNi4wNS01Ljg0TDAsNDMuOTNMNC4wNiw0OC4wN3oiLz4mI3hhOwkJPC9nPiYjeGE7CQk8ZyBpZD0ic2hhcGU3MDk0LTU4IiB0cmFuc2Zvcm09InRyYW5zbGF0ZSgwLjM5MDcxNSwtMzAuOTQyNCkiPiYjeGE7CQkJPHRpdGxlIGlkPSJ0aXRsZTMxMTc3MyI+U2hlZXQuNzA5NDwvdGl0bGU+JiN4YTsJCQk8cGF0aCBpZD0icGF0aDMxMTc3NSIgaW5rc2NhcGU6Y29ubmVjdG9yLWN1cnZhdHVyZT0iMCIgc3R5bGU9ImZpbGw6I0NFOUM1RTsiIGQ9Ik0wLDQ2LjRsMi4zNiwxLjY3bDQuMDYtNC42NGwtMy4yNC0yLjM3TDAsNDYuNCAgICAgeiIvPiYjeGE7CQk8L2c+JiN4YTsJCTxnIGlkPSJzaGFwZTcwOTUtNjAiIHRyYW5zZm9ybT0idHJhbnNsYXRlKDMuMTgyNzQsLTM0LjcxNzQpIj4mI3hhOwkJCTx0aXRsZSBpZD0idGl0bGUzMTE3NzgiPlNoZWV0LjcwOTU8L3RpdGxlPiYjeGE7CQkJPHBhdGggaWQ9InBhdGgzMTE3ODAiIGlua3NjYXBlOmNvbm5lY3Rvci1jdXJ2YXR1cmU9IjAiIHN0eWxlPSJmaWxsOiNFNkU3RTg7IiBkPSJNMC4zOCw0NC45NWMwLjYzLTAuODYsMS44Ni0xLjA5LDIuNzYtMC40MiAgICAgYzAuODksMC42NCwxLjA3LDEuODUsMC40NCwyLjc0Yy0wLjY3LDAuODUtMS44NiwxLjA3LTIuNzYsMC40NUMtMC4wNyw0Ny4wOS0wLjI2LDQ1Ljg3LDAuMzgsNDQuOTV6Ii8+JiN4YTsJCTwvZz4mI3hhOwkJPGcgaWQ9InNoYXBlNzA5Ni02MiIgdHJhbnNmb3JtPSJ0cmFuc2xhdGUoNS40NDYxMSwtMjYuNTQzMikiPiYjeGE7CQkJPHRpdGxlIGlkPSJ0aXRsZTMxMTc4MyI+U2hlZXQuNzA5NjwvdGl0bGU+JiN4YTsJCQk8cGF0aCBpZD0icGF0aDMxMTc4NSIgaW5rc2NhcGU6Y29ubmVjdG9yLWN1cnZhdHVyZT0iMCIgc3R5bGU9ImZpbGw6I0NEOUI1RTsiIGQ9Ik0xLjUzLDQ2Ljk1YzAuOTIsMC44NywxLjM3LDAuOTQsMi40MiwxLjA5ICAgICBjMC42MywwLjEsMC44NS0wLjA4LDAuNjMtMC4zYzAuNTUsMC4yNiwxLjExLTAuMTIsMC43MS0wLjNjMC4xNCwwLDAuNTEtMC4xMSwwLjUxLTAuMzRjMC4wMy0wLjE4LTAuMzctMC4yMi0wLjUxLTAuMjIgICAgIGMwLjE0LTAuMiwwLjExLTAuNDUtMC4zOC0wLjQ5Yy0wLjM4LTAuMDMtMC42LTAuMjMtMC42LTAuMjNjMC40NS0wLjExLDAuNi0wLjQxLDAuNDktMC41OWMtMC40OSwwLjAzLTEuMjMtMC4xNi0xLjgyLTAuMTEgICAgIGMtMC4xMSwwLTAuMjIsMC4wMy0wLjMzLDAuMDdjLTIuMzgtMS40Ny0yLjM4LTEuNDctMi4zOC0xLjQ3QzAsNDYuMTMsMCw0Ni4xMywwLDQ2LjEzTDEuNTMsNDYuOTV6Ii8+JiN4YTsJCTwvZz4mI3hhOwkJPGcgaWQ9InNoYXBlNzA5Ny02NCIgdHJhbnNmb3JtPSJ0cmFuc2xhdGUoMCwtMzAuMzY3MSkiPiYjeGE7CQkJPHRpdGxlIGlkPSJ0aXRsZTMxMTc4OCI+U2hlZXQuNzA5NzwvdGl0bGU+JiN4YTsJCQk8cGF0aCBpZD0icGF0aDMxMTc5MCIgaW5rc2NhcGU6Y29ubmVjdG9yLWN1cnZhdHVyZT0iMCIgc3R5bGU9ImZpbGw6I0NFOUM1RTsiIGQ9Ik0yLjI1LDQ1LjQyYzAuNjgsMC40MiwwLjg2LDEuMjgsMC40OSwxLjk5ICAgICBjLTAuNDIsMC42NC0xLjMzLDAuODYtMi4wMSwwLjQ1QzAsNDcuNDktMC4xOSw0Ni41OCwwLjIsNDUuOTFDMC42NSw0NS4xOSwxLjUyLDQ0Ljk2LDIuMjUsNDUuNDJ6Ii8+JiN4YTsJCTwvZz4mI3hhOwkJPGcgaWQ9InNoYXBlNzA5OC02NiIgdHJhbnNmb3JtPSJ0cmFuc2xhdGUoMC43Nzk1OTEsLTI3LjYzNDEpIj4mI3hhOwkJCTx0aXRsZSBpZD0idGl0bGUzMTE3OTMiPlNoZWV0LjcwOTg8L3RpdGxlPiYjeGE7CQkJPHBhdGggaWQ9InBhdGgzMTE3OTUiIGlua3NjYXBlOmNvbm5lY3Rvci1jdXJ2YXR1cmU9IjAiIHN0eWxlPSJmaWxsOiNDRTlDNUU7IiBkPSJNNi4yMiw0OC4wN2wwLjM5LTEuODNsLTUuMTMtMy40M0wwLDQ1LjE2ICAgICBMNi4yMiw0OC4wN3oiLz4mI3hhOwkJPC9nPiYjeGE7CQk8ZyBpZD0ic2hhcGU3MDk5LTY4IiB0cmFuc2Zvcm09InRyYW5zbGF0ZSgxLjE2ODQ3LC0zMi4zMDQ2KSI+JiN4YTsJCQk8dGl0bGUgaWQ9InRpdGxlMzExNzk4Ij5TaGVldC43MDk5PC90aXRsZT4mI3hhOwkJCTxwYXRoIGlkPSJwYXRoMzExODAwIiBpbmtzY2FwZTpjb25uZWN0b3ItY3VydmF0dXJlPSIwIiBzdHlsZT0iZmlsbDojRTZFN0U4OyIgZD0iTTAsNDUuOTVsMy4yMSwyLjEybDMuNC0zLjk4bC0yLjczLTEuNjdIMi40MiAgICAgTDAsNDUuOTV6Ii8+JiN4YTsJCTwvZz4mI3hhOwkJPGcgaWQ9InNoYXBlNzEwMC03MCIgdHJhbnNmb3JtPSJ0cmFuc2xhdGUoMTIuODM0OCwtMzEuMTM3KSI+JiN4YTsJCQk8dGl0bGUgaWQ9InRpdGxlMzExODAzIj5TaGVldC43MTAwPC90aXRsZT4mI3hhOwkJCTxwYXRoIGlkPSJwYXRoMzExODA1IiBpbmtzY2FwZTpjb25uZWN0b3ItY3VydmF0dXJlPSIwIiBzdHlsZT0iZmlsbDojQ0U5QzVFOyIgZD0iTTYuMjIsNDYuNzVsLTIuMzQsMS4zMkwwLDQzLjU0bDMuMTEtMi4yOCAgICAgTDYuMjIsNDYuNzV6Ii8+JiN4YTsJCTwvZz4mI3hhOwkJPGcgaWQ9InNoYXBlNzEwMS03MiIgdHJhbnNmb3JtPSJ0cmFuc2xhdGUoMTIuMzI5MSwtMzQuOTA3NSkiPiYjeGE7CQkJPHRpdGxlIGlkPSJ0aXRsZTMxMTgwOCI+U2hlZXQuNzEwMTwvdGl0bGU+JiN4YTsJCQk8cGF0aCBpZD0icGF0aDMxMTgxMCIgaW5rc2NhcGU6Y29ubmVjdG9yLWN1cnZhdHVyZT0iMCIgc3R5bGU9ImZpbGw6I0U2RTdFODsiIGQ9Ik0zLjYsNDQuOTFjLTAuNjYtMC44Ni0xLjg1LTEuMDUtMi43OS0wLjQxICAgICBjLTAuODksMC42Ny0xLjA4LDEuODYtMC40LDIuNzdjMC42MywwLjg4LDEuODYsMS4wNywyLjc2LDAuNDNDNC4wMiw0Ny4wNyw0LjIsNDUuODQsMy42LDQ0LjkxeiIvPiYjeGE7CQk8L2c+JiN4YTsJCTxnIGlkPSJzaGFwZTcxMDItNzQiIHRyYW5zZm9ybT0idHJhbnNsYXRlKDEzLjIyMzYsLTIyLjcwMSkiPiYjeGE7CQkJPHRpdGxlIGlkPSJ0aXRsZTMxMTgxMyI+U2hlZXQuNzEwMjwvdGl0bGU+JiN4YTsJCQk8cGF0aCBpZD0icGF0aDMxMTgxNSIgaW5rc2NhcGU6Y29ubmVjdG9yLWN1cnZhdHVyZT0iMCIgc3R5bGU9ImZpbGw6I0NEOUI1RTsiIGQ9Ik0zLjI5LDQ1LjEzYy0wLjE4LDEuMi0wLjQ3LDEuNTMtMS4xNCwyLjMgICAgIGMtMC40LDAuNDctMC42OCwwLjQ3LTAuNjQsMC4xOGMtMC4yNiwwLjU1LTAuOSwwLjU4LTAuNzIsMC4yMmMtMC4xMSwwLjA3LTAuNDMsMC4yNS0wLjU3LDAuMDdjLTAuMTUtMC4xMSwwLjExLTAuNCwwLjIyLTAuNDcgICAgIGMtMC4yMi0wLjA3LTAuMzctMC4yOSwwLTAuNjJjMC4yNC0wLjI2LDAuMzEtMC41NSwwLjMxLTAuNTVDMC4zMyw0Ni40NCwwLjA0LDQ2LjMzLDAsNDYuMTFjMC40LTAuMjUsMC44My0wLjg3LDEuMjktMS4yICAgICBjMC4xMS0wLjA3LDAuMjItMC4xNSwwLjMzLTAuMThjMC44NS0yLjU3LDAuODUtMi41NywwLjg1LTIuNTdjMS40MiwxLjM2LDEuNDIsMS4zNiwxLjQyLDEuMzZMMy4yOSw0NS4xM3oiLz4mI3hhOwkJPC9nPiYjeGE7CQk8ZyBpZD0ic2hhcGU3MTAzLTc2IiB0cmFuc2Zvcm09InRyYW5zbGF0ZSgxNy4wODA3LC0zMC43MjEyKSI+JiN4YTsJCQk8dGl0bGUgaWQ9InRpdGxlMzExODE4Ij5TaGVldC43MTAzPC90aXRsZT4mI3hhOwkJCTxwYXRoIGlkPSJwYXRoMzExODIwIiBpbmtzY2FwZTpjb25uZWN0b3ItY3VydmF0dXJlPSIwIiBzdHlsZT0iZmlsbDojQ0U5QzVFOyIgZD0iTTAuNTIsNDUuODZjLTAuNSwwLjM0LTAuNjgsMS4xMS0wLjM1LDEuNjYgICAgIGMwLjMxLDAuNTMsMC45OSwwLjcyLDEuNTMsMC4zOGMwLjUzLTAuMzEsMC42Ni0xLjA0LDAuMzUtMS42MUMxLjczLDQ1LjcxLDEuMDUsNDUuNTEsMC41Miw0NS44NnoiLz4mI3hhOwkJPC9nPiYjeGE7CQk8ZyBpZD0ic2hhcGU3MTA0LTc4IiB0cmFuc2Zvcm09InRyYW5zbGF0ZSgxNC45NzM2LC0yNS40OTM0KSI+JiN4YTsJCQk8dGl0bGUgaWQ9InRpdGxlMzExODIzIj5TaGVldC43MTA0PC90aXRsZT4mI3hhOwkJCTxwYXRoIGlkPSJwYXRoMzExODI1IiBpbmtzY2FwZTpjb25uZWN0b3ItY3VydmF0dXJlPSIwIiBzdHlsZT0iZmlsbDojQ0U5QzVFOyIgZD0iTTEuNTEsNDguMDdMMCw0Ni44OWwxLjctNi4wMmwyLjU4LDEuMDYgICAgIEwxLjUxLDQ4LjA3eiIvPiYjeGE7CQk8L2c+JiN4YTsJCTxnIGlkPSJzaGFwZTcxMDUtODAiIHRyYW5zZm9ybT0idHJhbnNsYXRlKDExLjg2MjYsLTMyLjQ5OTMpIj4mI3hhOwkJCTx0aXRsZSBpZD0idGl0bGUzMTE4MjgiPlNoZWV0LjcxMDU8L3RpdGxlPiYjeGE7CQkJPHBhdGggaWQ9InBhdGgzMTE4MzAiIGlua3NjYXBlOmNvbm5lY3Rvci1jdXJ2YXR1cmU9IjAiIHN0eWxlPSJmaWxsOiNFNkU3RTg7IiBkPSJNNi40Miw0NmwtMy4wOCwyLjA3TDAsNDQuMjZsMi42NC0xLjY0aDEuNDcgICAgIEw2LjQyLDQ2eiIvPiYjeGE7CQk8L2c+JiN4YTsJPC9nPiYjeGE7PC9nPiYjeGE7PC9zdmc+;fontStyle=1" parent="1" vertex="1">
          <mxGeometry x="226" y="-633.21" width="27" height="68" as="geometry" />
        </mxCell>
        <mxCell id="k0CTzh7-vUOgCoUulJSG-17" value="" style="edgeStyle=orthogonalEdgeStyle;rounded=0;orthogonalLoop=1;jettySize=auto;html=1;strokeColor=#FF8000;" edge="1" parent="1" source="x5Qx7wWfgq4q1o_DWIzA-1" target="-V9h-_qufcQMwzrIH1RG-18">
          <mxGeometry relative="1" as="geometry">
            <mxPoint x="529" y="-599" as="targetPoint" />
            <Array as="points">
              <mxPoint x="333" y="-518" />
              <mxPoint x="494" y="-518" />
              <mxPoint x="494" y="-599" />
            </Array>
          </mxGeometry>
        </mxCell>
        <mxCell id="x5Qx7wWfgq4q1o_DWIzA-1" value="" style="shape=image;verticalLabelPosition=bottom;labelBackgroundColor=default;verticalAlign=top;aspect=fixed;imageAspect=0;image=https://cdn.freebiesupply.com/logos/large/2x/git-icon-logo-png-transparent.png;" parent="1" vertex="1">
          <mxGeometry x="306" y="-498" width="54.74" height="54.74" as="geometry" />
        </mxCell>
        <mxCell id="x5Qx7wWfgq4q1o_DWIzA-3" value="" style="shape=image;verticalLabelPosition=bottom;labelBackgroundColor=default;verticalAlign=top;aspect=fixed;imageAspect=0;image=https://wiki.videolan.org/images/Windows_logo.png;" parent="1" vertex="1">
          <mxGeometry x="293" y="-729" width="60" height="60" as="geometry" />
        </mxCell>
        <mxCell id="k0CTzh7-vUOgCoUulJSG-21" value="" style="edgeStyle=orthogonalEdgeStyle;rounded=0;orthogonalLoop=1;jettySize=auto;html=1;entryX=0;entryY=0.5;entryDx=0;entryDy=0;strokeColor=#009900;" edge="1" parent="1" source="x5Qx7wWfgq4q1o_DWIzA-42" target="AcxdMaKK0mU5kZiv2lnr-38">
          <mxGeometry relative="1" as="geometry">
            <mxPoint x="417.94000000000005" y="-700" as="targetPoint" />
            <Array as="points">
              <mxPoint x="373" y="-592" />
              <mxPoint x="373" y="-754" />
              <mxPoint x="206" y="-754" />
              <mxPoint x="206" y="-599" />
            </Array>
          </mxGeometry>
        </mxCell>
        <mxCell id="x5Qx7wWfgq4q1o_DWIzA-42" value="" style="shape=image;verticalLabelPosition=bottom;labelBackgroundColor=default;verticalAlign=top;aspect=fixed;imageAspect=0;image=https://logodownload.org/wp-content/uploads/2017/05/microsoft-edge-logo-00.png;clipPath=inset(16.33% 17% 16% 16.67% round 49%);" parent="1" vertex="1">
          <mxGeometry x="390" y="-620" width="55.88" height="57" as="geometry" />
        </mxCell>
        <mxCell id="-V9h-_qufcQMwzrIH1RG-1" value="" style="image;sketch=0;aspect=fixed;html=1;points=[];align=center;fontSize=12;image=img/lib/mscae/Docker.svg;" parent="1" vertex="1">
          <mxGeometry x="316" y="-214" width="50" height="41" as="geometry" />
        </mxCell>
        <mxCell id="k0CTzh7-vUOgCoUulJSG-36" value="" style="edgeStyle=orthogonalEdgeStyle;rounded=0;orthogonalLoop=1;jettySize=auto;html=1;strokeColor=#009900;" edge="1" parent="1">
          <mxGeometry relative="1" as="geometry">
            <mxPoint x="697" y="-302" as="sourcePoint" />
            <mxPoint x="892" y="-564" as="targetPoint" />
            <Array as="points">
              <mxPoint x="832" y="-302" />
              <mxPoint x="832" y="-538" />
              <mxPoint x="892" y="-538" />
            </Array>
          </mxGeometry>
        </mxCell>
        <mxCell id="-V9h-_qufcQMwzrIH1RG-3" value="" style="aspect=fixed;sketch=0;html=1;dashed=0;whitespace=wrap;verticalLabelPosition=bottom;verticalAlign=top;fillColor=#2875E2;strokeColor=#ffffff;points=[[0.005,0.63,0],[0.1,0.2,0],[0.9,0.2,0],[0.5,0,0],[0.995,0.63,0],[0.72,0.99,0],[0.5,1,0],[0.28,0.99,0]];shape=mxgraph.kubernetes.icon2;prIcon=svc" parent="1" vertex="1">
          <mxGeometry x="655" y="-408" width="50" height="48" as="geometry" />
        </mxCell>
        <mxCell id="-V9h-_qufcQMwzrIH1RG-4" value="" style="aspect=fixed;sketch=0;html=1;dashed=0;whitespace=wrap;verticalLabelPosition=bottom;verticalAlign=top;fillColor=#2875E2;strokeColor=#ffffff;points=[[0.005,0.63,0],[0.1,0.2,0],[0.9,0.2,0],[0.5,0,0],[0.995,0.63,0],[0.72,0.99,0],[0.5,1,0],[0.28,0.99,0]];shape=mxgraph.kubernetes.icon2;kubernetesLabel=1;prIcon=ns" parent="1" vertex="1">
          <mxGeometry x="652" y="-501" width="50" height="48" as="geometry" />
        </mxCell>
        <mxCell id="-V9h-_qufcQMwzrIH1RG-5" value="" style="image;sketch=0;aspect=fixed;html=1;points=[];align=center;fontSize=12;image=img/lib/mscae/Kubernetes.svg;" parent="1" vertex="1">
          <mxGeometry x="652" y="-733" width="50" height="48" as="geometry" />
        </mxCell>
        <mxCell id="k0CTzh7-vUOgCoUulJSG-16" value="" style="edgeStyle=orthogonalEdgeStyle;rounded=0;orthogonalLoop=1;jettySize=auto;html=1;entryX=0;entryY=0.5;entryDx=0;entryDy=0;" edge="1" parent="1" source="-V9h-_qufcQMwzrIH1RG-6" target="AcxdMaKK0mU5kZiv2lnr-31">
          <mxGeometry relative="1" as="geometry">
            <mxPoint x="438" y="-372.6099999999999" as="targetPoint" />
            <Array as="points">
              <mxPoint x="382" y="-373" />
              <mxPoint x="382" y="-471" />
            </Array>
          </mxGeometry>
        </mxCell>
        <mxCell id="-V9h-_qufcQMwzrIH1RG-6" value="" style="shape=image;verticalLabelPosition=bottom;labelBackgroundColor=default;verticalAlign=top;aspect=fixed;imageAspect=0;image=https://brandslogos.com/wp-content/uploads/images/large/python-logo.png;" parent="1" vertex="1">
          <mxGeometry x="309" y="-399" width="53" height="52.78" as="geometry" />
        </mxCell>
        <mxCell id="k0CTzh7-vUOgCoUulJSG-19" value="" style="edgeStyle=orthogonalEdgeStyle;rounded=0;orthogonalLoop=1;jettySize=auto;html=1;" edge="1" parent="1" source="-V9h-_qufcQMwzrIH1RG-6" target="-V9h-_qufcQMwzrIH1RG-10">
          <mxGeometry relative="1" as="geometry" />
        </mxCell>
        <mxCell id="-V9h-_qufcQMwzrIH1RG-10" value="" style="shape=image;verticalLabelPosition=bottom;labelBackgroundColor=default;verticalAlign=top;aspect=fixed;imageAspect=0;image=https://ih1.redbubble.net/image.883315883.8466/bg,f8f8f8-flat,750x,075,f-pad,750x1000,f8f8f8.jpg;clipPath=inset(26.33% 0% 27.67% 0.67%);" parent="1" vertex="1">
          <mxGeometry x="294" y="-317" width="85" height="52.49" as="geometry" />
        </mxCell>
        <mxCell id="k0CTzh7-vUOgCoUulJSG-23" value="" style="edgeStyle=orthogonalEdgeStyle;rounded=0;orthogonalLoop=1;jettySize=auto;html=1;strokeColor=#009900;" edge="1" parent="1" source="-V9h-_qufcQMwzrIH1RG-13" target="x5Qx7wWfgq4q1o_DWIzA-42">
          <mxGeometry relative="1" as="geometry">
            <mxPoint x="942" y="-739" as="sourcePoint" />
            <mxPoint x="1057.67" y="-708" as="targetPoint" />
            <Array as="points">
              <mxPoint x="898" y="-765" />
              <mxPoint x="474" y="-765" />
              <mxPoint x="474" y="-591" />
            </Array>
          </mxGeometry>
        </mxCell>
        <mxCell id="-V9h-_qufcQMwzrIH1RG-13" value="" style="shape=image;verticalLabelPosition=bottom;labelBackgroundColor=default;verticalAlign=top;aspect=fixed;imageAspect=0;image=https://blog.myetv.tv/wp-content/uploads/2021/02/1200px-Grafana_logo.svg-1004x1024.png;" parent="1" vertex="1">
          <mxGeometry x="860" y="-742" width="66.67" height="68" as="geometry" />
        </mxCell>
        <mxCell id="k0CTzh7-vUOgCoUulJSG-25" value="" style="edgeStyle=orthogonalEdgeStyle;rounded=0;orthogonalLoop=1;jettySize=auto;html=1;strokeColor=#6600CC;entryX=0.5;entryY=1;entryDx=0;entryDy=0;" edge="1" parent="1" source="-V9h-_qufcQMwzrIH1RG-15" target="x5Qx7wWfgq4q1o_DWIzA-42">
          <mxGeometry relative="1" as="geometry">
            <mxPoint x="1059" y="-588.5" as="targetPoint" />
            <Array as="points">
              <mxPoint x="832" y="-595" />
              <mxPoint x="832" y="-753" />
              <mxPoint x="483" y="-753" />
              <mxPoint x="483" y="-548" />
              <mxPoint x="418" y="-548" />
            </Array>
          </mxGeometry>
        </mxCell>
        <mxCell id="k0CTzh7-vUOgCoUulJSG-38" value="" style="edgeStyle=orthogonalEdgeStyle;rounded=0;orthogonalLoop=1;jettySize=auto;html=1;strokeColor=#009900;" edge="1" parent="1" source="-V9h-_qufcQMwzrIH1RG-15" target="-V9h-_qufcQMwzrIH1RG-13">
          <mxGeometry relative="1" as="geometry" />
        </mxCell>
        <mxCell id="-V9h-_qufcQMwzrIH1RG-15" value="" style="shape=image;verticalLabelPosition=bottom;labelBackgroundColor=default;verticalAlign=top;aspect=fixed;imageAspect=0;image=https://rebrainme.com/prometheus/img/content-logos.png;clipPath=inset(14.38% 15% 14.73% 16% round 49%);" parent="1" vertex="1">
          <mxGeometry x="862" y="-627" width="63" height="63" as="geometry" />
        </mxCell>
        <mxCell id="-V9h-_qufcQMwzrIH1RG-17" value="" style="image;sketch=0;aspect=fixed;html=1;points=[];align=center;fontSize=12;image=img/lib/mscae/Azure_DevOps.svg;" parent="1" vertex="1">
          <mxGeometry x="528" y="-723" width="50" height="50" as="geometry" />
        </mxCell>
        <mxCell id="k0CTzh7-vUOgCoUulJSG-29" value="" style="edgeStyle=orthogonalEdgeStyle;rounded=0;orthogonalLoop=1;jettySize=auto;html=1;entryX=0.005;entryY=0.63;entryDx=0;entryDy=0;entryPerimeter=0;strokeColor=#009900;" edge="1" parent="1" source="-V9h-_qufcQMwzrIH1RG-18" target="-V9h-_qufcQMwzrIH1RG-22">
          <mxGeometry relative="1" as="geometry" />
        </mxCell>
        <mxCell id="-V9h-_qufcQMwzrIH1RG-18" value="" style="image;sketch=0;aspect=fixed;html=1;points=[];align=center;fontSize=12;image=img/lib/mscae/Azure_Pipelines.svg;" parent="1" vertex="1">
          <mxGeometry x="533" y="-621" width="50" height="50" as="geometry" />
        </mxCell>
        <mxCell id="k0CTzh7-vUOgCoUulJSG-39" value="" style="edgeStyle=orthogonalEdgeStyle;rounded=0;orthogonalLoop=1;jettySize=auto;html=1;strokeColor=#FF8000;" edge="1" parent="1" source="-V9h-_qufcQMwzrIH1RG-21" target="-V9h-_qufcQMwzrIH1RG-24">
          <mxGeometry relative="1" as="geometry">
            <Array as="points">
              <mxPoint x="550" y="-243" />
              <mxPoint x="898" y="-243" />
            </Array>
          </mxGeometry>
        </mxCell>
        <mxCell id="-V9h-_qufcQMwzrIH1RG-21" value="" style="shape=image;verticalLabelPosition=bottom;labelBackgroundColor=default;verticalAlign=top;aspect=fixed;imageAspect=0;image=https://logos-world.net/wp-content/uploads/2023/02/JavaScript-Emblem.png;clipPath=inset(3.25% 27% 3.25% 27%);" parent="1" vertex="1">
          <mxGeometry x="526" y="-397" width="47.99" height="54.94" as="geometry" />
        </mxCell>
        <mxCell id="k0CTzh7-vUOgCoUulJSG-32" value="" style="edgeStyle=orthogonalEdgeStyle;rounded=0;orthogonalLoop=1;jettySize=auto;html=1;strokeColor=#009900;" edge="1" parent="1" source="-V9h-_qufcQMwzrIH1RG-22" target="-V9h-_qufcQMwzrIH1RG-4">
          <mxGeometry relative="1" as="geometry" />
        </mxCell>
        <mxCell id="-V9h-_qufcQMwzrIH1RG-22" value="" style="aspect=fixed;sketch=0;html=1;dashed=0;whitespace=wrap;verticalLabelPosition=bottom;verticalAlign=top;fillColor=#2875E2;strokeColor=#ffffff;points=[[0.005,0.63,0],[0.1,0.2,0],[0.9,0.2,0],[0.5,0,0],[0.995,0.63,0],[0.72,0.99,0],[0.5,1,0],[0.28,0.99,0]];shape=mxgraph.kubernetes.icon2;prIcon=deploy" parent="1" vertex="1">
          <mxGeometry x="652" y="-626" width="50" height="48" as="geometry" />
        </mxCell>
        <mxCell id="-V9h-_qufcQMwzrIH1RG-23" value="" style="aspect=fixed;sketch=0;html=1;dashed=0;whitespace=wrap;verticalLabelPosition=bottom;verticalAlign=top;fillColor=#2875E2;strokeColor=#ffffff;points=[[0.005,0.63,0],[0.1,0.2,0],[0.9,0.2,0],[0.5,0,0],[0.995,0.63,0],[0.72,0.99,0],[0.5,1,0],[0.28,0.99,0]];shape=mxgraph.kubernetes.icon2;prIcon=netpol" parent="1" vertex="1">
          <mxGeometry x="727" y="-405" width="50" height="48" as="geometry" />
        </mxCell>
        <mxCell id="k0CTzh7-vUOgCoUulJSG-27" value="" style="edgeStyle=orthogonalEdgeStyle;rounded=0;orthogonalLoop=1;jettySize=auto;html=1;entryX=0.5;entryY=0;entryDx=0;entryDy=0;strokeColor=#009900;" edge="1" parent="1" source="-V9h-_qufcQMwzrIH1RG-24" target="x5Qx7wWfgq4q1o_DWIzA-42">
          <mxGeometry relative="1" as="geometry">
            <mxPoint x="1070.98" y="-474.03999999999996" as="targetPoint" />
            <Array as="points">
              <mxPoint x="967" y="-474" />
              <mxPoint x="967" y="-776" />
              <mxPoint x="418" y="-776" />
            </Array>
          </mxGeometry>
        </mxCell>
        <mxCell id="-V9h-_qufcQMwzrIH1RG-24" value="" style="shape=image;verticalLabelPosition=bottom;labelBackgroundColor=default;verticalAlign=top;aspect=fixed;imageAspect=0;image=https://www.logotypes101.com/logos/334/F47043404CFC71D613A91C5CD5E51D5B/cloudflare-logo-v-rgb.png;clipPath=inset(29% 0.33% 29% 0%);" parent="1" vertex="1">
          <mxGeometry x="843" y="-497" width="108.98" height="45.92" as="geometry" />
        </mxCell>
        <mxCell id="k0CTzh7-vUOgCoUulJSG-48" value="" style="edgeStyle=orthogonalEdgeStyle;rounded=0;orthogonalLoop=1;jettySize=auto;html=1;" edge="1" parent="1" source="NZ76d0vD9zfsOi36pwXu-1" target="k0CTzh7-vUOgCoUulJSG-49">
          <mxGeometry relative="1" as="geometry">
            <mxPoint x="733" y="-205" as="targetPoint" />
            <Array as="points">
              <mxPoint x="722" y="-220" />
              <mxPoint x="522" y="-220" />
              <mxPoint x="522" y="-364" />
            </Array>
          </mxGeometry>
        </mxCell>
        <mxCell id="NZ76d0vD9zfsOi36pwXu-1" value="" style="shape=image;verticalLabelPosition=bottom;labelBackgroundColor=default;verticalAlign=top;aspect=fixed;imageAspect=0;image=https://www.avibeweb.com/images/imagebank/Blog/Docker/Docker_Hub_Logo.jpg;clipPath=inset(27.78% 4.33% 30.16% 4.33%);" parent="1" vertex="1">
          <mxGeometry x="645" y="-125" width="154" height="29.79" as="geometry" />
        </mxCell>
        <mxCell id="k0CTzh7-vUOgCoUulJSG-40" value="" style="edgeStyle=orthogonalEdgeStyle;rounded=0;orthogonalLoop=1;jettySize=auto;html=1;" edge="1" parent="1" source="NZ76d0vD9zfsOi36pwXu-2" target="k0CTzh7-vUOgCoUulJSG-4">
          <mxGeometry relative="1" as="geometry" />
        </mxCell>
        <mxCell id="NZ76d0vD9zfsOi36pwXu-2" value="" style="shape=image;verticalLabelPosition=bottom;labelBackgroundColor=default;verticalAlign=top;aspect=fixed;imageAspect=0;image=https://www.pngitem.com/pimgs/m/27-272595_docker-compose-docker-compose-logo-hd-png-download.png;clipPath=inset(5.56% 19.33% 5.94% 19.67%);" parent="1" vertex="1">
          <mxGeometry x="318" y="-148" width="62.58" height="79" as="geometry" />
        </mxCell>
        <mxCell id="k0CTzh7-vUOgCoUulJSG-41" value="" style="edgeStyle=orthogonalEdgeStyle;rounded=0;orthogonalLoop=1;jettySize=auto;html=1;" edge="1" parent="1" source="k0CTzh7-vUOgCoUulJSG-1" target="k0CTzh7-vUOgCoUulJSG-4">
          <mxGeometry relative="1" as="geometry" />
        </mxCell>
        <mxCell id="k0CTzh7-vUOgCoUulJSG-1" value="" style="shape=image;verticalLabelPosition=bottom;labelBackgroundColor=default;verticalAlign=top;aspect=fixed;imageAspect=0;image=https://www.docker.com/wp-content/uploads/2023/10/home-hero-scout.png;clipPath=inset(5.91% 10% 7.35% 10.33%);" vertex="1" parent="1">
          <mxGeometry x="530" y="-141" width="64.07" height="64.87" as="geometry" />
        </mxCell>
        <mxCell id="k0CTzh7-vUOgCoUulJSG-43" value="" style="edgeStyle=orthogonalEdgeStyle;rounded=0;orthogonalLoop=1;jettySize=auto;html=1;entryX=0.5;entryY=1;entryDx=0;entryDy=0;" edge="1" parent="1" source="k0CTzh7-vUOgCoUulJSG-4" target="NZ76d0vD9zfsOi36pwXu-1">
          <mxGeometry relative="1" as="geometry">
            <mxPoint x="452.855" y="-218" as="targetPoint" />
            <Array as="points">
              <mxPoint x="445" y="-64" />
              <mxPoint x="722" y="-64" />
            </Array>
          </mxGeometry>
        </mxCell>
        <mxCell id="k0CTzh7-vUOgCoUulJSG-4" value="" style="shape=image;verticalLabelPosition=bottom;labelBackgroundColor=default;verticalAlign=top;aspect=fixed;imageAspect=0;image=https://docs.inventree.org/en/latest/assets/logo.png;clipPath=inset(1.33% 8.33% 0.67% 7.67%);" vertex="1" parent="1">
          <mxGeometry x="420" y="-138" width="49.71" height="58" as="geometry" />
        </mxCell>
        <mxCell id="-V9h-_qufcQMwzrIH1RG-2" value="" style="aspect=fixed;sketch=0;html=1;dashed=0;whitespace=wrap;verticalLabelPosition=bottom;verticalAlign=top;fillColor=#2875E2;strokeColor=#ffffff;points=[[0.005,0.63,0],[0.1,0.2,0],[0.9,0.2,0],[0.5,0,0],[0.995,0.63,0],[0.72,0.99,0],[0.5,1,0],[0.28,0.99,0]];shape=mxgraph.kubernetes.icon2;prIcon=pod" parent="1" vertex="1">
          <mxGeometry x="658" y="-326" width="50" height="48" as="geometry" />
        </mxCell>
        <mxCell id="k0CTzh7-vUOgCoUulJSG-56" value="" style="edgeStyle=orthogonalEdgeStyle;rounded=0;orthogonalLoop=1;jettySize=auto;html=1;" edge="1" parent="1" source="k0CTzh7-vUOgCoUulJSG-49" target="AcxdMaKK0mU5kZiv2lnr-31">
          <mxGeometry relative="1" as="geometry" />
        </mxCell>
        <mxCell id="k0CTzh7-vUOgCoUulJSG-49" value="" style="shape=image;verticalLabelPosition=bottom;labelBackgroundColor=default;verticalAlign=top;aspect=fixed;imageAspect=0;image=https://www.mathworks.com/solutions/enterprise-it-systems/architecture-patterns/_jcr_content/mainParsys/band_copy_copy/mainParsys/lockedsubnav/mainParsys/columns_copy_1107306972/f459bf48-0c99-4da3-9fde-c71e4a6f45b5/panel_copy_copy_copy/panelParsys/image.adapt.320.medium.jpg/1709676984157.jpg;clipPath=inset(13.31% 33.33% 11.54% 33.33%);" vertex="1" parent="1">
          <mxGeometry x="404" y="-403" width="47.26" height="60" as="geometry" />
        </mxCell>
        <mxCell id="k0CTzh7-vUOgCoUulJSG-53" value="" style="edgeStyle=orthogonalEdgeStyle;rounded=0;orthogonalLoop=1;jettySize=auto;html=1;" edge="1" parent="1" source="-V9h-_qufcQMwzrIH1RG-10" target="k0CTzh7-vUOgCoUulJSG-51">
          <mxGeometry relative="1" as="geometry" />
        </mxCell>
        <mxCell id="k0CTzh7-vUOgCoUulJSG-55" value="" style="edgeStyle=orthogonalEdgeStyle;rounded=0;orthogonalLoop=1;jettySize=auto;html=1;strokeColor=#FF8000;" edge="1" parent="1" source="k0CTzh7-vUOgCoUulJSG-51" target="NZ76d0vD9zfsOi36pwXu-2">
          <mxGeometry relative="1" as="geometry">
            <Array as="points">
              <mxPoint x="430" y="-165" />
              <mxPoint x="348" y="-165" />
            </Array>
          </mxGeometry>
        </mxCell>
        <mxCell id="k0CTzh7-vUOgCoUulJSG-51" value="" style="shape=image;verticalLabelPosition=bottom;labelBackgroundColor=default;verticalAlign=top;aspect=fixed;imageAspect=0;image=https://uxwing.com/wp-content/themes/uxwing/download/file-and-folder-type/yaml-file-icon.png;" vertex="1" parent="1">
          <mxGeometry x="405" y="-317" width="49" height="52.06" as="geometry" />
        </mxCell>
      </root>
    </mxGraphModel>
  </diagram>
</mxfile>
